<mxfile host="app.diagrams.net" modified="2021-06-09T20:19:03.027Z" agent="5.0 (X11; Linux x86_64) AppleWebKit/537.36 (KHTML, like Gecko) Chrome/91.0.4472.77 Safari/537.36" etag="bO6N9Paqmh8Cp-kv3wEA" version="14.7.6" type="github" pages="8">
  <diagram id="OOdmbMikkZIMYG3rUZyi" name="CONTEXTO">
    <mxGraphModel dx="839" dy="1707" grid="1" gridSize="10" guides="1" tooltips="1" connect="1" arrows="1" fold="1" page="1" pageScale="1" pageWidth="827" pageHeight="1169" math="0" shadow="0">
      <root>
        <mxCell id="0" />
        <mxCell id="1" parent="0" />
        <UserObject label="Medico" lucidchartObjectId="FE0dSkvcCrle" id="hYxVz6x1W1jGm2n7yveV-2">
          <mxCell style="html=1;overflow=block;blockSpacing=1;whiteSpace=wrap;shape=umlActor;labelPosition=center;verticalLabelPosition=bottom;verticalAlign=top;whiteSpace=nowrap;whiteSpace=wrap;fontSize=16.7;fontColor=#333333;align=center;spacing=0;strokeColor=#0c7cba;strokeOpacity=100;fillOpacity=100;rounded=1;absoluteArcSize=1;arcSize=9;fillColor=#c92d39;strokeWidth=2.3;" vertex="1" parent="1">
            <mxGeometry x="210" y="35" width="60" height="135" as="geometry" />
          </mxCell>
        </UserObject>
        <UserObject label="Usuario" lucidchartObjectId="LI0diWAD2ENH" id="hYxVz6x1W1jGm2n7yveV-3">
          <mxCell style="points=[[0.914,0.444,0]];html=1;overflow=block;blockSpacing=1;whiteSpace=wrap;shape=umlActor;labelPosition=center;verticalLabelPosition=bottom;verticalAlign=top;whiteSpace=nowrap;whiteSpace=wrap;fontSize=16.7;fontColor=#333333;align=center;spacing=0;strokeColor=#0c7cba;strokeOpacity=100;fillOpacity=100;rounded=1;absoluteArcSize=1;arcSize=9;fillColor=#c92d39;strokeWidth=2.3;" vertex="1" parent="1">
            <mxGeometry x="1310" y="251" width="60" height="135" as="geometry" />
          </mxCell>
        </UserObject>
        <UserObject label="Consultar pacientes activos" lucidchartObjectId="3J0d6Hhfx-hK" id="hYxVz6x1W1jGm2n7yveV-4">
          <mxCell style="html=1;overflow=block;blockSpacing=1;whiteSpace=wrap;ellipse;whiteSpace=wrap;fontSize=13;spacing=3.8;strokeColor=#5e5e5e;strokeOpacity=100;fillOpacity=100;rounded=1;absoluteArcSize=1;arcSize=9;fillColor=#ffdf71;strokeWidth=2.3;" vertex="1" parent="1">
            <mxGeometry x="413" y="20" width="135" height="75" as="geometry" />
          </mxCell>
        </UserObject>
        <UserObject label="Actualizar HC" lucidchartObjectId="tK0dgAu5H6Yx" id="hYxVz6x1W1jGm2n7yveV-5">
          <mxCell style="html=1;overflow=block;blockSpacing=1;whiteSpace=wrap;ellipse;whiteSpace=wrap;fontSize=13;spacing=3.8;strokeColor=#5e5e5e;strokeOpacity=100;fillOpacity=100;rounded=1;absoluteArcSize=1;arcSize=9;fillColor=#ffdf71;strokeWidth=2.3;" vertex="1" parent="1">
            <mxGeometry x="420" y="110" width="105" height="60" as="geometry" />
          </mxCell>
        </UserObject>
        <UserObject label="Consultar pacientes" lucidchartObjectId="FK0dUA~emL_b" id="hYxVz6x1W1jGm2n7yveV-6">
          <mxCell style="html=1;overflow=block;blockSpacing=1;whiteSpace=wrap;ellipse;whiteSpace=wrap;fontSize=13;spacing=3.8;strokeColor=#5e5e5e;strokeOpacity=100;fillOpacity=100;rounded=1;absoluteArcSize=1;arcSize=9;fillColor=#ffdf71;strokeWidth=2.3;" vertex="1" parent="1">
            <mxGeometry x="420" y="185" width="105" height="60" as="geometry" />
          </mxCell>
        </UserObject>
        <UserObject label="Administrador" lucidchartObjectId="u~DHpe6yVL.J" id="hYxVz6x1W1jGm2n7yveV-8">
          <mxCell style="html=1;overflow=block;blockSpacing=1;whiteSpace=wrap;shape=umlActor;labelPosition=center;verticalLabelPosition=bottom;verticalAlign=top;whiteSpace=nowrap;whiteSpace=wrap;fontSize=16.7;fontColor=#333333;align=center;spacing=0;strokeColor=#0c7cba;strokeOpacity=100;fillOpacity=100;rounded=1;absoluteArcSize=1;arcSize=9;fillColor=#c92d39;strokeWidth=2.3;" vertex="1" parent="1">
            <mxGeometry x="210" y="551.5" width="60" height="135" as="geometry" />
          </mxCell>
        </UserObject>
        <UserObject label="Gestinar Usuarios" lucidchartObjectId="RaEHTceuZkzi" id="hYxVz6x1W1jGm2n7yveV-9">
          <mxCell style="html=1;overflow=block;blockSpacing=1;whiteSpace=wrap;ellipse;whiteSpace=wrap;fontSize=13;spacing=3.8;strokeColor=#5e5e5e;strokeOpacity=100;fillOpacity=100;rounded=1;absoluteArcSize=1;arcSize=9;fillColor=#ffdf71;strokeWidth=2.3;" vertex="1" parent="1">
            <mxGeometry x="607.5" y="439.5" width="90" height="60" as="geometry" />
          </mxCell>
        </UserObject>
        <UserObject label="Gestionar Pacientes" lucidchartObjectId="~aEHiSi7e4zY" id="hYxVz6x1W1jGm2n7yveV-10">
          <mxCell style="html=1;overflow=block;blockSpacing=1;whiteSpace=wrap;ellipse;whiteSpace=wrap;fontSize=13;spacing=3.8;strokeColor=#5e5e5e;strokeOpacity=100;fillOpacity=100;rounded=1;absoluteArcSize=1;arcSize=9;fillColor=#ffdf71;strokeWidth=2.3;" vertex="1" parent="1">
            <mxGeometry x="484" y="635" width="90" height="60" as="geometry" />
          </mxCell>
        </UserObject>
        <UserObject label="Cambiar Contraseña" lucidchartObjectId="kbEHGUNcjtwF" id="hYxVz6x1W1jGm2n7yveV-11">
          <mxCell style="html=1;overflow=block;blockSpacing=1;whiteSpace=wrap;ellipse;whiteSpace=wrap;fontSize=13;spacing=3.8;strokeColor=#5e5e5e;strokeOpacity=100;fillOpacity=100;rounded=1;absoluteArcSize=1;arcSize=9;fillColor=#ffdf71;strokeWidth=2.3;" vertex="1" parent="1">
            <mxGeometry x="484" y="475" width="105" height="60" as="geometry" />
          </mxCell>
        </UserObject>
        <UserObject label="gestionar Médicos" lucidchartObjectId="qbEHlbZk856O" id="hYxVz6x1W1jGm2n7yveV-12">
          <mxCell style="html=1;overflow=block;blockSpacing=1;whiteSpace=wrap;ellipse;whiteSpace=wrap;fontSize=13;spacing=3.8;strokeColor=#5e5e5e;strokeOpacity=100;fillOpacity=100;rounded=1;absoluteArcSize=1;arcSize=9;fillColor=#ffdf71;strokeWidth=2.3;" vertex="1" parent="1">
            <mxGeometry x="607.5" y="511.5" width="90" height="60" as="geometry" />
          </mxCell>
        </UserObject>
        <UserObject label="Consultar Historias" lucidchartObjectId="vbEHnqTNQMa_" id="hYxVz6x1W1jGm2n7yveV-13">
          <mxCell style="html=1;overflow=block;blockSpacing=1;whiteSpace=wrap;ellipse;whiteSpace=wrap;fontSize=13;spacing=3.8;strokeColor=#5e5e5e;strokeOpacity=100;fillOpacity=100;rounded=1;absoluteArcSize=1;arcSize=9;fillColor=#ffdf71;strokeWidth=2.3;" vertex="1" parent="1">
            <mxGeometry x="592.5" y="755" width="105" height="60" as="geometry" />
          </mxCell>
        </UserObject>
        <UserObject label="Gestionar Procedimientos" lucidchartObjectId="CbEHeJh2HhSP" id="hYxVz6x1W1jGm2n7yveV-14">
          <mxCell style="html=1;overflow=block;blockSpacing=1;whiteSpace=wrap;ellipse;whiteSpace=wrap;fontSize=13;spacing=3.8;strokeColor=#5e5e5e;strokeOpacity=100;fillOpacity=100;rounded=1;absoluteArcSize=1;arcSize=9;fillColor=#ffdf71;strokeWidth=2.3;" vertex="1" parent="1">
            <mxGeometry x="600" y="581.5" width="105" height="75" as="geometry" />
          </mxCell>
        </UserObject>
        <UserObject label="Solicitar Usuario y Contraseña" lucidchartObjectId="HfEHA7M-2NYH" id="hYxVz6x1W1jGm2n7yveV-15">
          <mxCell style="html=1;overflow=block;blockSpacing=1;whiteSpace=wrap;ellipse;whiteSpace=wrap;fontSize=13;spacing=3.8;strokeColor=#0c7cba;strokeOpacity=100;fillOpacity=100;rounded=1;absoluteArcSize=1;arcSize=9;fillColor=#ffdf71;strokeWidth=2.3;" vertex="1" parent="1">
            <mxGeometry x="470" y="401.5" width="150" height="60" as="geometry" />
          </mxCell>
        </UserObject>
        <UserObject label="Ver ultimos accesos" lucidchartObjectId="LfEHRjw.d5YG" id="hYxVz6x1W1jGm2n7yveV-16">
          <mxCell style="html=1;overflow=block;blockSpacing=1;whiteSpace=wrap;ellipse;whiteSpace=wrap;fontSize=13;spacing=3.8;strokeColor=#5e5e5e;strokeOpacity=100;fillOpacity=100;rounded=1;absoluteArcSize=1;arcSize=9;fillColor=#ffdf71;strokeWidth=2.3;" vertex="1" parent="1">
            <mxGeometry x="484" y="715" width="105" height="60" as="geometry" />
          </mxCell>
        </UserObject>
        <UserObject label="Configurar Cuenta" lucidchartObjectId="RfEHe.qkwnZQ" id="hYxVz6x1W1jGm2n7yveV-17">
          <mxCell style="html=1;overflow=block;blockSpacing=1;whiteSpace=wrap;ellipse;whiteSpace=wrap;fontSize=13;spacing=3.8;strokeColor=#5e5e5e;strokeOpacity=100;fillOpacity=100;rounded=1;absoluteArcSize=1;arcSize=9;fillColor=#ffdf71;strokeWidth=2.3;" vertex="1" parent="1">
            <mxGeometry x="484" y="553.5" width="90" height="60" as="geometry" />
          </mxCell>
        </UserObject>
        <UserObject label="Visualizar reportes" lucidchartObjectId="WfEHvkucUYMc" id="hYxVz6x1W1jGm2n7yveV-18">
          <mxCell style="html=1;overflow=block;blockSpacing=1;whiteSpace=wrap;ellipse;whiteSpace=wrap;fontSize=13;spacing=3.8;strokeColor=#5e5e5e;strokeOpacity=100;fillOpacity=100;rounded=1;absoluteArcSize=1;arcSize=9;fillColor=#ffdf71;strokeWidth=2.3;" vertex="1" parent="1">
            <mxGeometry x="491.5" y="791.5" width="90" height="60" as="geometry" />
          </mxCell>
        </UserObject>
        <UserObject label="Registrar EPS" lucidchartObjectId="1fEHtQ1.xYmP" id="hYxVz6x1W1jGm2n7yveV-19">
          <mxCell style="html=1;overflow=block;blockSpacing=1;whiteSpace=wrap;ellipse;whiteSpace=wrap;fontSize=13;spacing=3.8;strokeColor=#5e5e5e;strokeOpacity=100;fillOpacity=100;rounded=1;absoluteArcSize=1;arcSize=9;fillColor=#ffdf71;strokeWidth=2.3;" vertex="1" parent="1">
            <mxGeometry x="600" y="670" width="90" height="60" as="geometry" />
          </mxCell>
        </UserObject>
        <UserObject label="" lucidchartObjectId="etEHJRYBEvwJ" id="hYxVz6x1W1jGm2n7yveV-22">
          <mxCell style="html=1;jettySize=18;whiteSpace=wrap;fontSize=13;strokeColor=#0c7cba;strokeOpacity=100;strokeWidth=1.5;rounded=0;startArrow=block;startFill=1;;endArrow=none;;exitX=-0.011;exitY=0.5;exitPerimeter=0;entryX=0.5;entryY=0.5;entryDx=0;entryDy=0;entryPerimeter=0;" edge="1" parent="1" source="hYxVz6x1W1jGm2n7yveV-13" target="hYxVz6x1W1jGm2n7yveV-8">
            <mxGeometry width="100" height="100" relative="1" as="geometry">
              <Array as="points">
                <mxPoint x="480" y="785.5" />
              </Array>
              <mxPoint x="865" y="895" as="targetPoint" />
            </mxGeometry>
          </mxCell>
        </UserObject>
        <UserObject label="" lucidchartObjectId="2tEHZx0wIxr8" id="hYxVz6x1W1jGm2n7yveV-23">
          <mxCell style="html=1;jettySize=18;whiteSpace=wrap;fontSize=13;strokeColor=#0c7cba;strokeOpacity=100;strokeWidth=1.5;rounded=0;startArrow=block;startFill=1;;endArrow=none;;exitX=-0.013;exitY=0.5;exitPerimeter=0;entryX=0.5;entryY=0.5;entryDx=0;entryDy=0;entryPerimeter=0;" edge="1" parent="1" source="hYxVz6x1W1jGm2n7yveV-19" target="hYxVz6x1W1jGm2n7yveV-8">
            <mxGeometry width="100" height="100" relative="1" as="geometry">
              <Array as="points">
                <mxPoint x="460" y="700.5" />
              </Array>
              <mxPoint x="865" y="820" as="targetPoint" />
            </mxGeometry>
          </mxCell>
        </UserObject>
        <UserObject label="" lucidchartObjectId="fuEH5vpz.LnF" id="hYxVz6x1W1jGm2n7yveV-24">
          <mxCell style="html=1;jettySize=18;whiteSpace=wrap;fontSize=13;strokeColor=#0c7cba;strokeOpacity=100;strokeWidth=1.5;rounded=0;startArrow=block;startFill=1;;endArrow=none;;exitX=-0.011;exitY=0.5;exitPerimeter=0;entryX=0.5;entryY=0.5;entryDx=0;entryDy=0;entryPerimeter=0;" edge="1" parent="1" source="hYxVz6x1W1jGm2n7yveV-14" target="hYxVz6x1W1jGm2n7yveV-8">
            <mxGeometry width="100" height="100" relative="1" as="geometry">
              <Array as="points">
                <mxPoint x="430" y="619.5" />
              </Array>
              <mxPoint x="865" y="738" as="targetPoint" />
            </mxGeometry>
          </mxCell>
        </UserObject>
        <UserObject label="" lucidchartObjectId="luEH8g1HshIA" id="hYxVz6x1W1jGm2n7yveV-25">
          <mxCell style="html=1;jettySize=18;whiteSpace=wrap;fontSize=13;strokeColor=#0c7cba;strokeOpacity=100;strokeWidth=1.5;rounded=0;startArrow=block;startFill=1;;endArrow=none;;exitX=-0.013;exitY=0.5;exitPerimeter=0;entryX=0.5;entryY=0.5;entryDx=0;entryDy=0;entryPerimeter=0;" edge="1" parent="1" source="hYxVz6x1W1jGm2n7yveV-10" target="hYxVz6x1W1jGm2n7yveV-8">
            <mxGeometry width="100" height="100" relative="1" as="geometry">
              <Array as="points" />
              <mxPoint x="865" y="655" as="targetPoint" />
            </mxGeometry>
          </mxCell>
        </UserObject>
        <UserObject label="" lucidchartObjectId="wuEHW-YWNsqN" id="hYxVz6x1W1jGm2n7yveV-26">
          <mxCell style="html=1;jettySize=18;whiteSpace=wrap;fontSize=13;strokeColor=#0c7cba;strokeOpacity=100;strokeWidth=1.5;rounded=0;startArrow=block;startFill=1;;endArrow=none;;exitX=-0.013;exitY=0.5;exitPerimeter=0;entryX=0.5;entryY=0.5;entryDx=0;entryDy=0;entryPerimeter=0;" edge="1" parent="1" source="hYxVz6x1W1jGm2n7yveV-12" target="hYxVz6x1W1jGm2n7yveV-8">
            <mxGeometry width="100" height="100" relative="1" as="geometry">
              <Array as="points">
                <mxPoint x="460" y="541.5" />
              </Array>
              <mxPoint x="830" y="595" as="targetPoint" />
            </mxGeometry>
          </mxCell>
        </UserObject>
        <UserObject label="" lucidchartObjectId="BuEH02fBDJxh" id="hYxVz6x1W1jGm2n7yveV-27">
          <mxCell style="html=1;jettySize=18;whiteSpace=wrap;fontSize=13;strokeColor=#0c7cba;strokeOpacity=100;strokeWidth=1.5;rounded=0;startArrow=block;startFill=1;;endArrow=none;;exitX=-0.013;exitY=0.5;exitPerimeter=0;entryX=0.5;entryY=0.5;entryDx=0;entryDy=0;entryPerimeter=0;" edge="1" parent="1" source="hYxVz6x1W1jGm2n7yveV-9" target="hYxVz6x1W1jGm2n7yveV-8">
            <mxGeometry width="100" height="100" relative="1" as="geometry">
              <Array as="points">
                <mxPoint x="460" y="469.5" />
              </Array>
              <mxPoint x="865" y="505" as="targetPoint" />
            </mxGeometry>
          </mxCell>
        </UserObject>
        <UserObject label="" lucidchartObjectId="VuEH3DEXufKF" id="hYxVz6x1W1jGm2n7yveV-28">
          <mxCell style="html=1;jettySize=18;whiteSpace=wrap;fontSize=13;strokeColor=#0c7cba;strokeOpacity=100;strokeWidth=1.5;rounded=0;startArrow=block;startFill=1;;endArrow=none;;exitX=0;exitY=0.5;entryX=0.5;entryY=0.5;entryDx=0;entryDy=0;entryPerimeter=0;exitDx=0;exitDy=0;" edge="1" parent="1" source="hYxVz6x1W1jGm2n7yveV-15" target="hYxVz6x1W1jGm2n7yveV-8">
            <mxGeometry width="100" height="100" relative="1" as="geometry">
              <Array as="points" />
              <mxPoint x="625" y="505" as="targetPoint" />
            </mxGeometry>
          </mxCell>
        </UserObject>
        <UserObject label="" lucidchartObjectId="1uEHd3L9Sj5E" id="hYxVz6x1W1jGm2n7yveV-29">
          <mxCell style="html=1;jettySize=18;whiteSpace=wrap;fontSize=13;strokeColor=#0c7cba;strokeOpacity=100;strokeWidth=1.5;rounded=0;startArrow=block;startFill=1;;endArrow=none;;exitX=0;exitY=0.5;entryX=0.5;entryY=0.5;entryDx=0;entryDy=0;entryPerimeter=0;exitDx=0;exitDy=0;" edge="1" parent="1" source="hYxVz6x1W1jGm2n7yveV-11" target="hYxVz6x1W1jGm2n7yveV-8">
            <mxGeometry width="100" height="100" relative="1" as="geometry">
              <Array as="points" />
              <mxPoint x="625" y="595" as="targetPoint" />
            </mxGeometry>
          </mxCell>
        </UserObject>
        <UserObject label="" lucidchartObjectId=".uEH6H6Rb.QQ" id="hYxVz6x1W1jGm2n7yveV-30">
          <mxCell style="html=1;jettySize=18;whiteSpace=wrap;fontSize=13;strokeColor=#0c7cba;strokeOpacity=100;strokeWidth=1.5;rounded=0;startArrow=block;startFill=1;;endArrow=none;;exitX=0;exitY=0.5;entryX=0.5;entryY=0.5;entryDx=0;entryDy=0;entryPerimeter=0;exitDx=0;exitDy=0;" edge="1" parent="1" source="hYxVz6x1W1jGm2n7yveV-17" target="hYxVz6x1W1jGm2n7yveV-8">
            <mxGeometry width="100" height="100" relative="1" as="geometry">
              <Array as="points" />
              <mxPoint x="625" y="685" as="targetPoint" />
            </mxGeometry>
          </mxCell>
        </UserObject>
        <UserObject label="" lucidchartObjectId="evEHcwu62_tH" id="hYxVz6x1W1jGm2n7yveV-31">
          <mxCell style="html=1;jettySize=18;whiteSpace=wrap;fontSize=13;strokeColor=#0c7cba;strokeOpacity=100;strokeWidth=1.5;rounded=0;startArrow=block;startFill=1;;endArrow=none;;exitX=0;exitY=0.5;entryX=0.5;entryY=0.5;entryDx=0;entryDy=0;entryPerimeter=0;exitDx=0;exitDy=0;" edge="1" parent="1" source="hYxVz6x1W1jGm2n7yveV-16" target="hYxVz6x1W1jGm2n7yveV-8">
            <mxGeometry width="100" height="100" relative="1" as="geometry">
              <Array as="points" />
              <mxPoint x="625" y="775" as="targetPoint" />
            </mxGeometry>
          </mxCell>
        </UserObject>
        <UserObject label="" lucidchartObjectId="xvEHjiZ7_81~" id="hYxVz6x1W1jGm2n7yveV-32">
          <mxCell style="html=1;jettySize=18;whiteSpace=wrap;fontSize=13;strokeColor=#0c7cba;strokeOpacity=100;strokeWidth=1.5;rounded=0;startArrow=block;startFill=1;;endArrow=none;;exitX=0;exitY=0.5;exitDx=0;exitDy=0;entryX=0.5;entryY=0.5;entryDx=0;entryDy=0;entryPerimeter=0;" edge="1" parent="1" source="hYxVz6x1W1jGm2n7yveV-18" target="hYxVz6x1W1jGm2n7yveV-8">
            <mxGeometry width="100" height="100" relative="1" as="geometry">
              <Array as="points" />
              <mxPoint x="745" y="445" as="targetPoint" />
            </mxGeometry>
          </mxCell>
        </UserObject>
        <UserObject label="Consultar Procedimientos" lucidchartObjectId="0DEHHepe12jo" id="hYxVz6x1W1jGm2n7yveV-33">
          <mxCell style="html=1;overflow=block;blockSpacing=1;whiteSpace=wrap;ellipse;whiteSpace=wrap;fontSize=13;spacing=3.8;strokeColor=#5e5e5e;strokeOpacity=100;fillOpacity=100;rounded=1;absoluteArcSize=1;arcSize=9;fillColor=#ffdf71;strokeWidth=2.3;" vertex="1" parent="1">
            <mxGeometry x="413" y="260" width="120" height="60" as="geometry" />
          </mxCell>
        </UserObject>
        <UserObject label="" lucidchartObjectId="cJEHdTii0SU~" id="hYxVz6x1W1jGm2n7yveV-36">
          <mxCell style="html=1;jettySize=18;whiteSpace=wrap;fontSize=13;strokeColor=#0c7cba;strokeOpacity=100;strokeWidth=1.5;rounded=0;startArrow=block;startFill=1;;endArrow=none;;exitX=-0.008;exitY=0.5;exitPerimeter=0;entryX=0.5;entryY=0.5;entryDx=0;entryDy=0;entryPerimeter=0;" edge="1" parent="1" target="hYxVz6x1W1jGm2n7yveV-2">
            <mxGeometry width="100" height="100" relative="1" as="geometry">
              <Array as="points" />
              <mxPoint x="404" y="-32" as="sourcePoint" />
              <mxPoint x="315" y="290" as="targetPoint" />
            </mxGeometry>
          </mxCell>
        </UserObject>
        <UserObject label="" lucidchartObjectId="ZLEHgdQ_qlKR" id="hYxVz6x1W1jGm2n7yveV-37">
          <mxCell style="html=1;jettySize=18;whiteSpace=wrap;fontSize=13;strokeColor=#0c7cba;strokeOpacity=100;strokeWidth=1.5;rounded=0;startArrow=block;startFill=1;;endArrow=none;;exitX=-0.009;exitY=0.5;exitPerimeter=0;entryX=0.5;entryY=0.5;entryDx=0;entryDy=0;entryPerimeter=0;" edge="1" parent="1" source="hYxVz6x1W1jGm2n7yveV-33" target="hYxVz6x1W1jGm2n7yveV-2">
            <mxGeometry width="100" height="100" relative="1" as="geometry">
              <Array as="points" />
              <mxPoint x="315" y="290" as="targetPoint" />
            </mxGeometry>
          </mxCell>
        </UserObject>
        <UserObject label="" lucidchartObjectId="8LEHH6MMFhqe" id="hYxVz6x1W1jGm2n7yveV-38">
          <mxCell style="html=1;jettySize=18;whiteSpace=wrap;fontSize=13;strokeColor=#0c7cba;strokeOpacity=100;strokeWidth=1.5;rounded=0;startArrow=block;startFill=1;;endArrow=none;;exitX=-0.011;exitY=0.5;exitPerimeter=0;entryX=0.5;entryY=0.5;entryDx=0;entryDy=0;entryPerimeter=0;" edge="1" parent="1" source="hYxVz6x1W1jGm2n7yveV-6" target="hYxVz6x1W1jGm2n7yveV-2">
            <mxGeometry width="100" height="100" relative="1" as="geometry">
              <Array as="points" />
              <mxPoint x="250" y="110" as="targetPoint" />
            </mxGeometry>
          </mxCell>
        </UserObject>
        <UserObject label="" lucidchartObjectId="~LEH.X20u~6a" id="hYxVz6x1W1jGm2n7yveV-39">
          <mxCell style="html=1;jettySize=18;whiteSpace=wrap;fontSize=13;strokeColor=#0c7cba;strokeOpacity=100;strokeWidth=1.5;rounded=0;startArrow=block;startFill=1;;endArrow=none;;exitX=-0.011;exitY=0.5;exitPerimeter=0;entryX=0.5;entryY=0.5;entryDx=0;entryDy=0;entryPerimeter=0;" edge="1" parent="1" source="hYxVz6x1W1jGm2n7yveV-5" target="hYxVz6x1W1jGm2n7yveV-2">
            <mxGeometry width="100" height="100" relative="1" as="geometry">
              <Array as="points" />
              <mxPoint x="315" y="140" as="targetPoint" />
            </mxGeometry>
          </mxCell>
        </UserObject>
        <UserObject label="" lucidchartObjectId="eMEHNnhXeDDq" id="hYxVz6x1W1jGm2n7yveV-40">
          <mxCell style="html=1;jettySize=18;whiteSpace=wrap;fontSize=13;strokeColor=#0c7cba;strokeOpacity=100;strokeWidth=1.5;rounded=0;startArrow=block;startFill=1;;endArrow=none;;exitX=-0.008;exitY=0.5;exitPerimeter=0;entryX=0.5;entryY=0.5;entryDx=0;entryDy=0;entryPerimeter=0;" edge="1" parent="1" source="hYxVz6x1W1jGm2n7yveV-4" target="hYxVz6x1W1jGm2n7yveV-2">
            <mxGeometry width="100" height="100" relative="1" as="geometry">
              <Array as="points" />
              <mxPoint x="315" y="57" as="targetPoint" />
            </mxGeometry>
          </mxCell>
        </UserObject>
        <UserObject label="Realizar Login" lucidchartObjectId="OVEHaY0Qm4pX" id="hYxVz6x1W1jGm2n7yveV-42">
          <mxCell style="html=1;overflow=block;blockSpacing=1;whiteSpace=wrap;ellipse;whiteSpace=wrap;fontSize=13;spacing=3.8;strokeColor=#5e5e5e;strokeOpacity=100;fillOpacity=100;rounded=1;absoluteArcSize=1;arcSize=9;fillColor=#ffdf71;strokeWidth=2.3;" vertex="1" parent="1">
            <mxGeometry x="1160" y="289" width="90" height="59" as="geometry" />
          </mxCell>
        </UserObject>
        <UserObject label="Validar acceso" lucidchartObjectId="HWEHPpJsTPRH" id="hYxVz6x1W1jGm2n7yveV-43">
          <mxCell style="html=1;overflow=block;blockSpacing=1;whiteSpace=wrap;ellipse;whiteSpace=wrap;fontSize=13;spacing=3.8;strokeColor=#5e5e5e;strokeOpacity=100;fillOpacity=100;rounded=1;absoluteArcSize=1;arcSize=9;fillColor=#ffdf71;strokeWidth=2.3;" vertex="1" parent="1">
            <mxGeometry x="995" y="291.5" width="90" height="59" as="geometry" />
          </mxCell>
        </UserObject>
        <UserObject label="Ingreso Usuario" lucidchartObjectId="oXEHKgIwtvIS" id="hYxVz6x1W1jGm2n7yveV-44">
          <mxCell style="html=1;overflow=block;blockSpacing=1;whiteSpace=wrap;ellipse;whiteSpace=wrap;fontSize=13;spacing=3.8;strokeColor=#5e5e5e;strokeOpacity=100;fillOpacity=100;rounded=1;absoluteArcSize=1;arcSize=9;fillColor=#ffdf71;strokeWidth=2.3;" vertex="1" parent="1">
            <mxGeometry x="1108" y="150" width="90" height="59" as="geometry" />
          </mxCell>
        </UserObject>
        <UserObject label="Ingresar clave" lucidchartObjectId="yXEHKwgKduD8" id="hYxVz6x1W1jGm2n7yveV-45">
          <mxCell style="html=1;overflow=block;blockSpacing=1;whiteSpace=wrap;ellipse;whiteSpace=wrap;fontSize=13;spacing=3.8;strokeColor=#5e5e5e;strokeOpacity=100;fillOpacity=100;rounded=1;absoluteArcSize=1;arcSize=9;fillColor=#ffdf71;strokeWidth=2.3;" vertex="1" parent="1">
            <mxGeometry x="860" y="150" width="90" height="59" as="geometry" />
          </mxCell>
        </UserObject>
        <UserObject label="Consultar Datos" lucidchartObjectId="VXEHYiHwZAt2" id="hYxVz6x1W1jGm2n7yveV-46">
          <mxCell style="html=1;overflow=block;blockSpacing=1;whiteSpace=wrap;ellipse;whiteSpace=wrap;fontSize=13;spacing=3.8;strokeColor=#5e5e5e;strokeOpacity=100;fillOpacity=100;rounded=1;absoluteArcSize=1;arcSize=9;fillColor=#ffdf71;strokeWidth=2.3;" vertex="1" parent="1">
            <mxGeometry x="1124" y="429" width="90" height="59" as="geometry" />
          </mxCell>
        </UserObject>
        <UserObject label="Validar Usuario" lucidchartObjectId="7XEHMQbp0vdp" id="hYxVz6x1W1jGm2n7yveV-47">
          <mxCell style="html=1;overflow=block;blockSpacing=1;whiteSpace=wrap;ellipse;whiteSpace=wrap;fontSize=13;spacing=3.8;strokeColor=#5e5e5e;strokeOpacity=100;fillOpacity=100;rounded=1;absoluteArcSize=1;arcSize=9;fillColor=#ffdf71;strokeWidth=2.3;" vertex="1" parent="1">
            <mxGeometry x="850" y="420.5" width="90" height="59" as="geometry" />
          </mxCell>
        </UserObject>
        <UserObject label="Entrar" lucidchartObjectId="iYEHMqqK4Qtk" id="hYxVz6x1W1jGm2n7yveV-48">
          <mxCell style="html=1;overflow=block;blockSpacing=1;whiteSpace=wrap;ellipse;whiteSpace=wrap;fontSize=13;spacing=3.8;strokeColor=#5e5e5e;strokeOpacity=100;fillOpacity=100;rounded=1;absoluteArcSize=1;arcSize=9;fillColor=#ffdf71;strokeWidth=2.3;" vertex="1" parent="1">
            <mxGeometry x="800" y="291.5" width="90" height="59" as="geometry" />
          </mxCell>
        </UserObject>
        <UserObject label="" lucidchartObjectId="lZEH0GYo_SdV" id="hYxVz6x1W1jGm2n7yveV-49">
          <mxCell style="html=1;jettySize=18;whiteSpace=wrap;fontSize=13;strokeColor=#0c7cba;strokeOpacity=100;strokeWidth=1.5;rounded=0;startArrow=block;startFill=1;;endArrow=none;;exitX=1;exitY=0.5;entryX=0.5;entryY=0.5;entryPerimeter=0;entryDx=0;entryDy=0;exitDx=0;exitDy=0;" edge="1" parent="1" source="hYxVz6x1W1jGm2n7yveV-42" target="hYxVz6x1W1jGm2n7yveV-3">
            <mxGeometry width="100" height="100" relative="1" as="geometry">
              <Array as="points" />
            </mxGeometry>
          </mxCell>
        </UserObject>
        <UserObject label="" lucidchartObjectId="0ZEHyjaEn9JT" id="hYxVz6x1W1jGm2n7yveV-50">
          <mxCell style="html=1;jettySize=18;whiteSpace=wrap;fontSize=13;strokeColor=#0c7cba;strokeOpacity=100;strokeWidth=1.5;rounded=0;startArrow=none;;endArrow=block;endFill=1;;exitX=0;exitY=0.5;exitDx=0;exitDy=0;" edge="1" parent="1" source="hYxVz6x1W1jGm2n7yveV-42">
            <mxGeometry width="100" height="100" relative="1" as="geometry">
              <Array as="points" />
              <mxPoint x="1080" y="320" as="targetPoint" />
            </mxGeometry>
          </mxCell>
        </UserObject>
        <UserObject label="" lucidchartObjectId="d0EHxiJup5E5" id="hYxVz6x1W1jGm2n7yveV-51">
          <mxCell style="html=1;jettySize=18;whiteSpace=wrap;fontSize=13;strokeColor=#0c7cba;strokeOpacity=100;strokeWidth=1.5;rounded=0;startArrow=none;;endArrow=block;endFill=1;;exitX=0;exitY=0.5;entryX=1;entryY=0.5;exitDx=0;exitDy=0;entryDx=0;entryDy=0;" edge="1" parent="1" source="hYxVz6x1W1jGm2n7yveV-43" target="hYxVz6x1W1jGm2n7yveV-48">
            <mxGeometry width="100" height="100" relative="1" as="geometry">
              <Array as="points" />
            </mxGeometry>
          </mxCell>
        </UserObject>
        <UserObject label="" lucidchartObjectId="C0EH4a97aFeu" id="hYxVz6x1W1jGm2n7yveV-52">
          <mxCell style="html=1;jettySize=18;whiteSpace=wrap;fontSize=13;strokeColor=#0c7cba;strokeOpacity=100;dashed=1;fixDash=1;strokeWidth=1.5;rounded=0;startArrow=none;;endArrow=block;endFill=1;;exitX=0.5;exitY=1.019;exitPerimeter=0;entryX=0.5;entryY=-0.019;entryPerimeter=0;" edge="1" parent="1" source="hYxVz6x1W1jGm2n7yveV-45" target="hYxVz6x1W1jGm2n7yveV-43">
            <mxGeometry width="100" height="100" relative="1" as="geometry">
              <Array as="points" />
            </mxGeometry>
          </mxCell>
        </UserObject>
        <UserObject label="" lucidchartObjectId="J0EHQ5jR9vLj" id="hYxVz6x1W1jGm2n7yveV-53">
          <mxCell style="html=1;jettySize=18;whiteSpace=wrap;fontSize=13;strokeColor=#0c7cba;strokeOpacity=100;dashed=1;fixDash=1;strokeWidth=1.5;rounded=0;startArrow=none;;endArrow=block;endFill=1;;exitX=0.5;exitY=1.019;exitPerimeter=0;entryX=0.5;entryY=-0.019;entryPerimeter=0;" edge="1" parent="1" source="hYxVz6x1W1jGm2n7yveV-44" target="hYxVz6x1W1jGm2n7yveV-43">
            <mxGeometry width="100" height="100" relative="1" as="geometry">
              <Array as="points" />
            </mxGeometry>
          </mxCell>
        </UserObject>
        <UserObject label="" lucidchartObjectId="P0EH0pjZNMO_" id="hYxVz6x1W1jGm2n7yveV-54">
          <mxCell style="html=1;jettySize=18;whiteSpace=wrap;fontSize=13;strokeColor=#0c7cba;strokeOpacity=100;dashed=1;fixDash=1;strokeWidth=1.5;rounded=0;startArrow=none;;endArrow=block;endFill=1;;exitX=0.5;exitY=1.019;exitPerimeter=0;entryX=0.5;entryY=-0.019;entryPerimeter=0;" edge="1" parent="1" source="hYxVz6x1W1jGm2n7yveV-43" target="hYxVz6x1W1jGm2n7yveV-46">
            <mxGeometry width="100" height="100" relative="1" as="geometry">
              <Array as="points" />
            </mxGeometry>
          </mxCell>
        </UserObject>
        <UserObject label="" lucidchartObjectId="W0EHhc3I0Tiw" id="hYxVz6x1W1jGm2n7yveV-55">
          <mxCell style="html=1;jettySize=18;whiteSpace=wrap;fontSize=13;strokeColor=#0c7cba;strokeOpacity=100;dashed=1;fixDash=1;strokeWidth=1.5;rounded=0;startArrow=none;;endArrow=block;endFill=1;;exitX=0.5;exitY=1.019;exitPerimeter=0;entryX=0.5;entryY=-0.019;entryPerimeter=0;" edge="1" parent="1" source="hYxVz6x1W1jGm2n7yveV-43" target="hYxVz6x1W1jGm2n7yveV-47">
            <mxGeometry width="100" height="100" relative="1" as="geometry">
              <Array as="points" />
            </mxGeometry>
          </mxCell>
        </UserObject>
        <UserObject label="&lt;b&gt;Include&lt;/b&gt;" lucidchartObjectId="M3EHJV._x4sp" id="hYxVz6x1W1jGm2n7yveV-56">
          <mxCell style="html=1;overflow=block;blockSpacing=1;whiteSpace=wrap;;whiteSpace=wrap;fontSize=16.7;fontColor=#333333;align=center;spacing=3.8;strokeOpacity=0;fillOpacity=0;rounded=1;absoluteArcSize=1;arcSize=9;rotation=30;fillColor=#ffffff;strokeWidth=2.3;" vertex="1" parent="1">
            <mxGeometry x="950" y="226.5" width="60" height="30" as="geometry" />
          </mxCell>
        </UserObject>
        <UserObject label="&lt;b&gt;Include&lt;/b&gt;" lucidchartObjectId="i4EH-JJC2BV5" id="hYxVz6x1W1jGm2n7yveV-57">
          <mxCell style="html=1;overflow=block;blockSpacing=1;whiteSpace=wrap;;whiteSpace=wrap;fontSize=16.7;fontColor=#333333;align=center;spacing=3.8;strokeOpacity=0;fillOpacity=0;rounded=1;absoluteArcSize=1;arcSize=9;rotation=-32.93387656557623;fillColor=#ffffff;strokeWidth=2.3;" vertex="1" parent="1">
            <mxGeometry x="1056" y="233.5" width="60" height="23" as="geometry" />
          </mxCell>
        </UserObject>
        <UserObject label="&lt;b&gt;Extends&lt;/b&gt;" lucidchartObjectId="F4EHOzKFMex6" id="hYxVz6x1W1jGm2n7yveV-58">
          <mxCell style="html=1;overflow=block;blockSpacing=1;whiteSpace=wrap;;whiteSpace=wrap;fontSize=16.7;fontColor=#333333;align=center;spacing=3.8;strokeOpacity=0;fillOpacity=0;rounded=1;absoluteArcSize=1;arcSize=9;rotation=-23.093664721986155;fillColor=#ffffff;strokeWidth=2.3;" vertex="1" parent="1">
            <mxGeometry x="923" y="365.5" width="60" height="30" as="geometry" />
          </mxCell>
        </UserObject>
        <UserObject label="&lt;b&gt;Extends&lt;/b&gt;" lucidchartObjectId="T5EHCv4mWj-i" id="hYxVz6x1W1jGm2n7yveV-59">
          <mxCell style="html=1;overflow=block;blockSpacing=1;whiteSpace=wrap;;whiteSpace=wrap;fontSize=16.7;fontColor=#333333;align=center;spacing=3.8;strokeOpacity=0;fillOpacity=0;rounded=1;absoluteArcSize=1;arcSize=9;rotation=28.9460271799721;fillColor=#ffffff;strokeWidth=2.3;" vertex="1" parent="1">
            <mxGeometry x="1073" y="362.5" width="60" height="30" as="geometry" />
          </mxCell>
        </UserObject>
        <UserObject label="Solicitud de usuario y contraseña" lucidchartObjectId="2I0dnJuTgZEY" id="hYxVz6x1W1jGm2n7yveV-60">
          <mxCell style="html=1;overflow=block;blockSpacing=1;whiteSpace=wrap;ellipse;whiteSpace=wrap;fontSize=13;spacing=3.8;strokeColor=#5e5e5e;strokeOpacity=100;fillOpacity=100;rounded=1;absoluteArcSize=1;arcSize=9;fillColor=#ffdf71;strokeWidth=2.3;" vertex="1" parent="1">
            <mxGeometry x="405" y="-70" width="150" height="75" as="geometry" />
          </mxCell>
        </UserObject>
        <mxCell id="hYxVz6x1W1jGm2n7yveV-74" value="" style="shape=folder;fontStyle=1;spacingTop=10;tabWidth=40;tabHeight=14;tabPosition=left;html=1;fillColor=none;strokeColor=#3399FF;strokeWidth=2;" vertex="1" parent="1">
          <mxGeometry x="370" y="-150" width="270" height="480" as="geometry" />
        </mxCell>
        <mxCell id="hYxVz6x1W1jGm2n7yveV-78" value="&lt;b&gt;&lt;font style=&quot;font-size: 22px&quot;&gt;SISTEMA DE GESTIÓN DE HISTORIAS CLINICAS&lt;/font&gt;&lt;/b&gt;" style="text;html=1;strokeColor=none;fillColor=none;align=center;verticalAlign=middle;whiteSpace=wrap;rounded=0;strokeWidth=10;" vertex="1" parent="1">
          <mxGeometry x="620" y="-230" width="527.5" height="30" as="geometry" />
        </mxCell>
        <mxCell id="hYxVz6x1W1jGm2n7yveV-79" value="&lt;b&gt;&lt;font style=&quot;font-size: 14px&quot;&gt;Servicio de atención medica&amp;nbsp;&lt;/font&gt;&lt;/b&gt;" style="text;html=1;strokeColor=none;fillColor=none;align=center;verticalAlign=middle;whiteSpace=wrap;rounded=0;" vertex="1" parent="1">
          <mxGeometry x="407.82" y="-110" width="210" height="30" as="geometry" />
        </mxCell>
        <mxCell id="hYxVz6x1W1jGm2n7yveV-87" value="" style="shape=folder;fontStyle=1;spacingTop=10;tabWidth=40;tabHeight=14;tabPosition=left;html=1;fillColor=none;strokeColor=#3399FF;strokeWidth=2;" vertex="1" parent="1">
          <mxGeometry x="417.5" y="340" width="342.5" height="530" as="geometry" />
        </mxCell>
        <mxCell id="hYxVz6x1W1jGm2n7yveV-88" value="" style="shape=folder;fontStyle=1;spacingTop=10;tabWidth=40;tabHeight=14;tabPosition=left;html=1;fillColor=none;strokeColor=#3399FF;strokeWidth=2;" vertex="1" parent="1">
          <mxGeometry x="790" y="51.5" width="488.5" height="460" as="geometry" />
        </mxCell>
        <mxCell id="hYxVz6x1W1jGm2n7yveV-89" value="&lt;b&gt;&lt;font style=&quot;font-size: 14px&quot;&gt;Servicio de administración de citas&amp;nbsp;&lt;/font&gt;&lt;/b&gt;" style="text;html=1;strokeColor=none;fillColor=none;align=center;verticalAlign=middle;whiteSpace=wrap;rounded=0;" vertex="1" parent="1">
          <mxGeometry x="484" y="365.5" width="256" height="30" as="geometry" />
        </mxCell>
        <mxCell id="hYxVz6x1W1jGm2n7yveV-90" value="&lt;b&gt;&lt;font style=&quot;font-size: 14px&quot;&gt;Servicio de gestión de citas&amp;nbsp;&lt;/font&gt;&lt;/b&gt;" style="text;html=1;strokeColor=none;fillColor=none;align=center;verticalAlign=middle;whiteSpace=wrap;rounded=0;" vertex="1" parent="1">
          <mxGeometry x="931.5" y="80" width="228.5" height="30" as="geometry" />
        </mxCell>
        <mxCell id="hYxVz6x1W1jGm2n7yveV-91" value="&lt;b&gt;&lt;font style=&quot;font-size: 14px&quot;&gt;&amp;lt;&amp;lt;Functional Subsystem&amp;gt;&amp;gt;&lt;/font&gt;&lt;/b&gt;" style="text;html=1;strokeColor=none;fillColor=none;align=center;verticalAlign=middle;whiteSpace=wrap;rounded=0;" vertex="1" parent="1">
          <mxGeometry x="514.6600000000001" y="348" width="194.68" height="30" as="geometry" />
        </mxCell>
        <mxCell id="hYxVz6x1W1jGm2n7yveV-92" value="&lt;b&gt;&lt;font style=&quot;font-size: 14px&quot;&gt;&amp;lt;&amp;lt;Functional Subsystem&amp;gt;&amp;gt;&lt;/font&gt;&lt;/b&gt;" style="text;html=1;strokeColor=none;fillColor=none;align=center;verticalAlign=middle;whiteSpace=wrap;rounded=0;" vertex="1" parent="1">
          <mxGeometry x="415.63" y="-130" width="194.37" height="30" as="geometry" />
        </mxCell>
        <mxCell id="hYxVz6x1W1jGm2n7yveV-94" value="&lt;b&gt;&lt;font style=&quot;font-size: 14px&quot;&gt;&amp;lt;&amp;lt;Functional Subsystem&amp;gt;&amp;gt;&lt;/font&gt;&lt;/b&gt;" style="text;html=1;strokeColor=none;fillColor=none;align=center;verticalAlign=middle;whiteSpace=wrap;rounded=0;" vertex="1" parent="1">
          <mxGeometry x="940" y="65" width="210" height="30" as="geometry" />
        </mxCell>
        <mxCell id="hYxVz6x1W1jGm2n7yveV-95" value="&lt;b&gt;&lt;font style=&quot;font-size: 22px&quot;&gt;&amp;lt;&amp;lt;System&amp;gt;&amp;gt;&lt;/font&gt;&lt;/b&gt;" style="text;html=1;strokeColor=none;fillColor=none;align=center;verticalAlign=middle;whiteSpace=wrap;rounded=0;" vertex="1" parent="1">
          <mxGeometry x="774.13" y="-260" width="165.87" height="30" as="geometry" />
        </mxCell>
        <mxCell id="hYxVz6x1W1jGm2n7yveV-96" value="" style="shape=folder;fontStyle=1;spacingTop=10;tabWidth=40;tabHeight=14;tabPosition=left;html=1;fillColor=none;strokeColor=#3399FF;strokeWidth=2;" vertex="1" parent="1">
          <mxGeometry x="190" y="-280" width="1200" height="1170" as="geometry" />
        </mxCell>
      </root>
    </mxGraphModel>
  </diagram>
  <diagram id="qCwJ_OQrMKx5IUKAWO9Q" name="SECUENCIA-INGRESAR-ASISTEMA">
    <mxGraphModel dx="839" dy="477" grid="1" gridSize="10" guides="1" tooltips="1" connect="1" arrows="1" fold="1" page="1" pageScale="1" pageWidth="827" pageHeight="1169" math="0" shadow="0">
      <root>
        <mxCell id="A8kImdiQO41w4yDux5y2-0" />
        <mxCell id="A8kImdiQO41w4yDux5y2-1" parent="A8kImdiQO41w4yDux5y2-0" />
        <mxCell id="IzGERi0NRzMNY0f9pDQi-0" value=":Usuario" style="shape=umlActor;verticalLabelPosition=bottom;verticalAlign=top;html=1;outlineConnect=0;strokeWidth=2;fillColor=#FFFFFF;" vertex="1" parent="A8kImdiQO41w4yDux5y2-1">
          <mxGeometry x="70" y="250" width="30" height="60" as="geometry" />
        </mxCell>
        <mxCell id="1drokP8MOGPRKEDwb_Jz-2" value="" style="endArrow=none;dashed=1;html=1;" edge="1" parent="A8kImdiQO41w4yDux5y2-1">
          <mxGeometry width="50" height="50" relative="1" as="geometry">
            <mxPoint x="84.5" y="390" as="sourcePoint" />
            <mxPoint x="84.5" y="330" as="targetPoint" />
          </mxGeometry>
        </mxCell>
        <mxCell id="1drokP8MOGPRKEDwb_Jz-3" value="" style="html=1;points=[];perimeter=orthogonalPerimeter;strokeWidth=2;fillColor=#FFB366;" vertex="1" parent="A8kImdiQO41w4yDux5y2-1">
          <mxGeometry x="80" y="390" width="10" height="60" as="geometry" />
        </mxCell>
        <mxCell id="1drokP8MOGPRKEDwb_Jz-4" value="1: Ingresar Datos()" style="html=1;verticalAlign=bottom;endArrow=block;exitX=1.2;exitY=-0.017;exitDx=0;exitDy=0;exitPerimeter=0;" edge="1" parent="A8kImdiQO41w4yDux5y2-1" source="1drokP8MOGPRKEDwb_Jz-3">
          <mxGeometry relative="1" as="geometry">
            <mxPoint x="180" y="190" as="sourcePoint" />
            <mxPoint x="230" y="389" as="targetPoint" />
          </mxGeometry>
        </mxCell>
        <mxCell id="1drokP8MOGPRKEDwb_Jz-7" value="" style="html=1;points=[];perimeter=orthogonalPerimeter;strokeColor=#000000;strokeWidth=2;fillColor=#FFB570;" vertex="1" parent="A8kImdiQO41w4yDux5y2-1">
          <mxGeometry x="80" y="480" width="10" height="60" as="geometry" />
        </mxCell>
        <mxCell id="1drokP8MOGPRKEDwb_Jz-8" value="" style="endArrow=none;dashed=1;html=1;" edge="1" parent="A8kImdiQO41w4yDux5y2-1">
          <mxGeometry width="50" height="50" relative="1" as="geometry">
            <mxPoint x="85" y="480" as="sourcePoint" />
            <mxPoint x="84.5" y="450" as="targetPoint" />
          </mxGeometry>
        </mxCell>
        <mxCell id="1drokP8MOGPRKEDwb_Jz-10" value="5: Ingresar al sistema()" style="html=1;verticalAlign=bottom;endArrow=block;exitX=1.2;exitY=-0.017;exitDx=0;exitDy=0;exitPerimeter=0;" edge="1" parent="A8kImdiQO41w4yDux5y2-1">
          <mxGeometry x="0.0145" y="-20" relative="1" as="geometry">
            <mxPoint x="92" y="509" as="sourcePoint" />
            <mxPoint x="230" y="509.02" as="targetPoint" />
            <mxPoint as="offset" />
          </mxGeometry>
        </mxCell>
        <mxCell id="1drokP8MOGPRKEDwb_Jz-11" value="" style="html=1;points=[];perimeter=orthogonalPerimeter;strokeColor=#000000;strokeWidth=2;fillColor=#FFB366;" vertex="1" parent="A8kImdiQO41w4yDux5y2-1">
          <mxGeometry x="230" y="360" width="10" height="60" as="geometry" />
        </mxCell>
        <mxCell id="1drokP8MOGPRKEDwb_Jz-12" value="" style="html=1;points=[];perimeter=orthogonalPerimeter;strokeColor=#000000;strokeWidth=2;fillColor=#FFB570;" vertex="1" parent="A8kImdiQO41w4yDux5y2-1">
          <mxGeometry x="230" y="450" width="10" height="60" as="geometry" />
        </mxCell>
        <mxCell id="1drokP8MOGPRKEDwb_Jz-13" value="4: Envia Confirmación()" style="html=1;verticalAlign=bottom;endArrow=block;exitX=-0.1;exitY=-0.017;exitDx=0;exitDy=0;exitPerimeter=0;" edge="1" parent="A8kImdiQO41w4yDux5y2-1" source="1drokP8MOGPRKEDwb_Jz-12">
          <mxGeometry x="-0.0416" y="21" relative="1" as="geometry">
            <mxPoint x="102" y="398.98" as="sourcePoint" />
            <mxPoint x="85" y="449" as="targetPoint" />
            <mxPoint as="offset" />
          </mxGeometry>
        </mxCell>
        <mxCell id="1drokP8MOGPRKEDwb_Jz-14" value="" style="endArrow=none;dashed=1;html=1;entryX=0.6;entryY=1;entryDx=0;entryDy=0;entryPerimeter=0;" edge="1" parent="A8kImdiQO41w4yDux5y2-1" target="1drokP8MOGPRKEDwb_Jz-7">
          <mxGeometry width="50" height="50" relative="1" as="geometry">
            <mxPoint x="86" y="610" as="sourcePoint" />
            <mxPoint x="90" y="560" as="targetPoint" />
          </mxGeometry>
        </mxCell>
        <mxCell id="1drokP8MOGPRKEDwb_Jz-15" value="" style="endArrow=none;dashed=1;html=1;" edge="1" parent="A8kImdiQO41w4yDux5y2-1">
          <mxGeometry width="50" height="50" relative="1" as="geometry">
            <mxPoint x="235" y="450" as="sourcePoint" />
            <mxPoint x="234.5" y="420" as="targetPoint" />
          </mxGeometry>
        </mxCell>
        <mxCell id="1drokP8MOGPRKEDwb_Jz-16" value="" style="endArrow=none;dashed=1;html=1;" edge="1" parent="A8kImdiQO41w4yDux5y2-1">
          <mxGeometry width="50" height="50" relative="1" as="geometry">
            <mxPoint x="234.5" y="360" as="sourcePoint" />
            <mxPoint x="234.5" y="300" as="targetPoint" />
          </mxGeometry>
        </mxCell>
        <mxCell id="1drokP8MOGPRKEDwb_Jz-17" value=":Login" style="rounded=0;whiteSpace=wrap;html=1;strokeColor=#000000;strokeWidth=2;fillColor=#FFB366;" vertex="1" parent="A8kImdiQO41w4yDux5y2-1">
          <mxGeometry x="202.5" y="260" width="65" height="40" as="geometry" />
        </mxCell>
        <mxCell id="1drokP8MOGPRKEDwb_Jz-18" value="2: Verificar Datos()" style="html=1;verticalAlign=bottom;endArrow=block;exitX=1.2;exitY=-0.017;exitDx=0;exitDy=0;exitPerimeter=0;" edge="1" parent="A8kImdiQO41w4yDux5y2-1">
          <mxGeometry relative="1" as="geometry">
            <mxPoint x="230" y="359" as="sourcePoint" />
            <mxPoint x="380" y="359" as="targetPoint" />
          </mxGeometry>
        </mxCell>
        <mxCell id="1drokP8MOGPRKEDwb_Jz-19" value="3: Notificar_Validación()" style="html=1;verticalAlign=bottom;endArrow=block;entryX=0.8;entryY=1.017;entryDx=0;entryDy=0;entryPerimeter=0;" edge="1" parent="A8kImdiQO41w4yDux5y2-1" target="1drokP8MOGPRKEDwb_Jz-11">
          <mxGeometry relative="1" as="geometry">
            <mxPoint x="380" y="421" as="sourcePoint" />
            <mxPoint x="430" y="410" as="targetPoint" />
          </mxGeometry>
        </mxCell>
        <mxCell id="1drokP8MOGPRKEDwb_Jz-20" value="" style="endArrow=none;dashed=1;html=1;" edge="1" parent="A8kImdiQO41w4yDux5y2-1">
          <mxGeometry width="50" height="50" relative="1" as="geometry">
            <mxPoint x="234.5" y="570" as="sourcePoint" />
            <mxPoint x="234.5" y="510" as="targetPoint" />
          </mxGeometry>
        </mxCell>
        <mxCell id="1drokP8MOGPRKEDwb_Jz-21" value="" style="html=1;points=[];perimeter=orthogonalPerimeter;strokeColor=#000000;strokeWidth=2;fillColor=#FFB366;" vertex="1" parent="A8kImdiQO41w4yDux5y2-1">
          <mxGeometry x="380" y="360" width="10" height="30" as="geometry" />
        </mxCell>
        <mxCell id="1drokP8MOGPRKEDwb_Jz-22" value="" style="html=1;points=[];perimeter=orthogonalPerimeter;strokeColor=#000000;strokeWidth=2;fillColor=#FFB366;" vertex="1" parent="A8kImdiQO41w4yDux5y2-1">
          <mxGeometry x="380" y="420" width="10" height="40" as="geometry" />
        </mxCell>
        <mxCell id="1drokP8MOGPRKEDwb_Jz-23" value=":Hclinica_BD" style="rounded=0;whiteSpace=wrap;html=1;strokeColor=#000000;strokeWidth=2;fillColor=#FFB366;" vertex="1" parent="A8kImdiQO41w4yDux5y2-1">
          <mxGeometry x="346.25" y="250" width="77.5" height="40" as="geometry" />
        </mxCell>
        <mxCell id="1drokP8MOGPRKEDwb_Jz-24" value="" style="endArrow=none;dashed=1;html=1;" edge="1" parent="A8kImdiQO41w4yDux5y2-1">
          <mxGeometry width="50" height="50" relative="1" as="geometry">
            <mxPoint x="384.5" y="520" as="sourcePoint" />
            <mxPoint x="384.5" y="460" as="targetPoint" />
          </mxGeometry>
        </mxCell>
        <mxCell id="1drokP8MOGPRKEDwb_Jz-25" value="" style="endArrow=none;dashed=1;html=1;" edge="1" parent="A8kImdiQO41w4yDux5y2-1">
          <mxGeometry width="50" height="50" relative="1" as="geometry">
            <mxPoint x="385" y="420" as="sourcePoint" />
            <mxPoint x="384.5" y="390" as="targetPoint" />
          </mxGeometry>
        </mxCell>
        <mxCell id="1drokP8MOGPRKEDwb_Jz-26" value="" style="endArrow=none;dashed=1;html=1;exitX=0.4;exitY=0;exitDx=0;exitDy=0;exitPerimeter=0;entryX=0.477;entryY=1;entryDx=0;entryDy=0;entryPerimeter=0;" edge="1" parent="A8kImdiQO41w4yDux5y2-1" source="1drokP8MOGPRKEDwb_Jz-21" target="1drokP8MOGPRKEDwb_Jz-23">
          <mxGeometry width="50" height="50" relative="1" as="geometry">
            <mxPoint x="385" y="350" as="sourcePoint" />
            <mxPoint x="385" y="290" as="targetPoint" />
          </mxGeometry>
        </mxCell>
      </root>
    </mxGraphModel>
  </diagram>
  <diagram id="U0IZdMQWh9WDp-AiZ5RJ" name="SECUENCIA-REGISTRAR-PACIENTE">
    <mxGraphModel dx="839" dy="477" grid="1" gridSize="10" guides="1" tooltips="1" connect="1" arrows="1" fold="1" page="1" pageScale="1" pageWidth="827" pageHeight="1169" math="0" shadow="0">
      <root>
        <mxCell id="EJXPMdEUjoN_3fhHxnt8-0" />
        <mxCell id="EJXPMdEUjoN_3fhHxnt8-1" parent="EJXPMdEUjoN_3fhHxnt8-0" />
        <mxCell id="ZSkOE5o-YNTRxDY9XjfA-0" value="Administrador" style="shape=umlActor;verticalLabelPosition=bottom;verticalAlign=top;html=1;outlineConnect=0;strokeColor=#000000;strokeWidth=2;fillColor=#FFFFFF;" vertex="1" parent="EJXPMdEUjoN_3fhHxnt8-1">
          <mxGeometry x="140" y="250" width="30" height="60" as="geometry" />
        </mxCell>
        <mxCell id="L99eU4T8-5NnzIl17GrI-0" value="" style="endArrow=none;dashed=1;html=1;entryX=0.477;entryY=1;entryDx=0;entryDy=0;entryPerimeter=0;" edge="1" parent="EJXPMdEUjoN_3fhHxnt8-1">
          <mxGeometry width="50" height="50" relative="1" as="geometry">
            <mxPoint x="154" y="380" as="sourcePoint" />
            <mxPoint x="154.49749999999997" y="330" as="targetPoint" />
          </mxGeometry>
        </mxCell>
        <mxCell id="BWuRqdvcE11-sBqwD4Od-0" value="" style="html=1;points=[];perimeter=orthogonalPerimeter;strokeWidth=2;fillColor=#FFB366;" vertex="1" parent="EJXPMdEUjoN_3fhHxnt8-1">
          <mxGeometry x="150" y="380" width="10" height="60" as="geometry" />
        </mxCell>
        <mxCell id="BWuRqdvcE11-sBqwD4Od-1" value="" style="html=1;points=[];perimeter=orthogonalPerimeter;strokeWidth=2;fillColor=#FFB366;" vertex="1" parent="EJXPMdEUjoN_3fhHxnt8-1">
          <mxGeometry x="150" y="470" width="10" height="60" as="geometry" />
        </mxCell>
        <mxCell id="BWuRqdvcE11-sBqwD4Od-2" value="" style="html=1;points=[];perimeter=orthogonalPerimeter;strokeWidth=2;fillColor=#FFB366;" vertex="1" parent="EJXPMdEUjoN_3fhHxnt8-1">
          <mxGeometry x="330" y="380" width="10" height="60" as="geometry" />
        </mxCell>
        <mxCell id="BWuRqdvcE11-sBqwD4Od-3" value="" style="html=1;points=[];perimeter=orthogonalPerimeter;strokeWidth=2;fillColor=#FFB366;" vertex="1" parent="EJXPMdEUjoN_3fhHxnt8-1">
          <mxGeometry x="490" y="470" width="10" height="60" as="geometry" />
        </mxCell>
        <mxCell id="BWuRqdvcE11-sBqwD4Od-4" value="" style="html=1;points=[];perimeter=orthogonalPerimeter;strokeWidth=2;fillColor=#FFB366;" vertex="1" parent="EJXPMdEUjoN_3fhHxnt8-1">
          <mxGeometry x="720" y="470" width="10" height="60" as="geometry" />
        </mxCell>
        <mxCell id="BWuRqdvcE11-sBqwD4Od-5" value="" style="html=1;points=[];perimeter=orthogonalPerimeter;strokeWidth=2;fillColor=#FFB366;" vertex="1" parent="EJXPMdEUjoN_3fhHxnt8-1">
          <mxGeometry x="720" y="380" width="10" height="60" as="geometry" />
        </mxCell>
        <mxCell id="R4aCfyAHD7KML6_HTG28-0" value=":Login" style="rounded=0;whiteSpace=wrap;html=1;strokeColor=#000000;strokeWidth=2;fillColor=#FFB366;" vertex="1" parent="EJXPMdEUjoN_3fhHxnt8-1">
          <mxGeometry x="302.5" y="250" width="65" height="40" as="geometry" />
        </mxCell>
        <mxCell id="R4aCfyAHD7KML6_HTG28-1" value="form:Registrar" style="rounded=0;whiteSpace=wrap;html=1;strokeColor=#000000;strokeWidth=2;fillColor=#FFB366;" vertex="1" parent="EJXPMdEUjoN_3fhHxnt8-1">
          <mxGeometry x="451.25" y="250" width="87.5" height="40" as="geometry" />
        </mxCell>
        <mxCell id="R4aCfyAHD7KML6_HTG28-2" value="" style="endArrow=none;dashed=1;html=1;entryX=0.5;entryY=1;entryDx=0;entryDy=0;exitX=0.4;exitY=-0.033;exitDx=0;exitDy=0;exitPerimeter=0;" edge="1" parent="EJXPMdEUjoN_3fhHxnt8-1" source="BWuRqdvcE11-sBqwD4Od-3" target="R4aCfyAHD7KML6_HTG28-1">
          <mxGeometry width="50" height="50" relative="1" as="geometry">
            <mxPoint x="495" y="460" as="sourcePoint" />
            <mxPoint x="490" y="300" as="targetPoint" />
          </mxGeometry>
        </mxCell>
        <mxCell id="R4aCfyAHD7KML6_HTG28-3" value="" style="endArrow=none;dashed=1;html=1;entryX=0.477;entryY=1;entryDx=0;entryDy=0;entryPerimeter=0;" edge="1" parent="EJXPMdEUjoN_3fhHxnt8-1">
          <mxGeometry width="50" height="50" relative="1" as="geometry">
            <mxPoint x="495" y="600" as="sourcePoint" />
            <mxPoint x="494.99749999999995" y="530" as="targetPoint" />
          </mxGeometry>
        </mxCell>
        <mxCell id="R4aCfyAHD7KML6_HTG28-4" value="" style="endArrow=none;dashed=1;html=1;entryX=0.477;entryY=1;entryDx=0;entryDy=0;entryPerimeter=0;exitX=0.5;exitY=0;exitDx=0;exitDy=0;exitPerimeter=0;" edge="1" parent="EJXPMdEUjoN_3fhHxnt8-1" source="BWuRqdvcE11-sBqwD4Od-2">
          <mxGeometry width="50" height="50" relative="1" as="geometry">
            <mxPoint x="334.5" y="340" as="sourcePoint" />
            <mxPoint x="334.99749999999995" y="290" as="targetPoint" />
          </mxGeometry>
        </mxCell>
        <mxCell id="R4aCfyAHD7KML6_HTG28-5" value="" style="endArrow=none;dashed=1;html=1;entryX=0.477;entryY=1;entryDx=0;entryDy=0;entryPerimeter=0;" edge="1" parent="EJXPMdEUjoN_3fhHxnt8-1">
          <mxGeometry width="50" height="50" relative="1" as="geometry">
            <mxPoint x="335" y="590" as="sourcePoint" />
            <mxPoint x="334.99749999999995" y="440" as="targetPoint" />
          </mxGeometry>
        </mxCell>
        <mxCell id="R4aCfyAHD7KML6_HTG28-6" value="" style="endArrow=none;dashed=1;html=1;entryX=0.477;entryY=1;entryDx=0;entryDy=0;entryPerimeter=0;" edge="1" parent="EJXPMdEUjoN_3fhHxnt8-1">
          <mxGeometry width="50" height="50" relative="1" as="geometry">
            <mxPoint x="154.5" y="585" as="sourcePoint" />
            <mxPoint x="154.99749999999995" y="535" as="targetPoint" />
          </mxGeometry>
        </mxCell>
        <mxCell id="R4aCfyAHD7KML6_HTG28-7" value="" style="endArrow=none;dashed=1;html=1;entryX=0.477;entryY=1;entryDx=0;entryDy=0;entryPerimeter=0;" edge="1" parent="EJXPMdEUjoN_3fhHxnt8-1">
          <mxGeometry width="50" height="50" relative="1" as="geometry">
            <mxPoint x="155" y="470" as="sourcePoint" />
            <mxPoint x="154.99749999999995" y="440" as="targetPoint" />
          </mxGeometry>
        </mxCell>
        <mxCell id="R4aCfyAHD7KML6_HTG28-9" value="" style="endArrow=none;dashed=1;html=1;entryX=0.477;entryY=1;entryDx=0;entryDy=0;entryPerimeter=0;" edge="1" parent="EJXPMdEUjoN_3fhHxnt8-1">
          <mxGeometry width="50" height="50" relative="1" as="geometry">
            <mxPoint x="724.5" y="580" as="sourcePoint" />
            <mxPoint x="724.9975" y="530" as="targetPoint" />
          </mxGeometry>
        </mxCell>
        <mxCell id="R4aCfyAHD7KML6_HTG28-10" value=":Hclinica_BD" style="rounded=0;whiteSpace=wrap;html=1;strokeColor=#000000;strokeWidth=2;fillColor=#FFB366;" vertex="1" parent="EJXPMdEUjoN_3fhHxnt8-1">
          <mxGeometry x="681.25" y="250" width="87.5" height="40" as="geometry" />
        </mxCell>
        <mxCell id="R4aCfyAHD7KML6_HTG28-11" value="" style="endArrow=none;dashed=1;html=1;entryX=0.477;entryY=1;entryDx=0;entryDy=0;entryPerimeter=0;" edge="1" parent="EJXPMdEUjoN_3fhHxnt8-1">
          <mxGeometry width="50" height="50" relative="1" as="geometry">
            <mxPoint x="725" y="470" as="sourcePoint" />
            <mxPoint x="724.9975" y="440" as="targetPoint" />
          </mxGeometry>
        </mxCell>
        <mxCell id="R4aCfyAHD7KML6_HTG28-12" value="" style="endArrow=none;dashed=1;html=1;exitX=0.5;exitY=0;exitDx=0;exitDy=0;exitPerimeter=0;" edge="1" parent="EJXPMdEUjoN_3fhHxnt8-1" source="BWuRqdvcE11-sBqwD4Od-5">
          <mxGeometry width="50" height="50" relative="1" as="geometry">
            <mxPoint x="724.5" y="330" as="sourcePoint" />
            <mxPoint x="725" y="290" as="targetPoint" />
          </mxGeometry>
        </mxCell>
        <mxCell id="xOTAHoX2hxh3_IF1JAQe-0" value="1: Ingresar al Sistema()" style="html=1;verticalAlign=bottom;endArrow=block;exitX=1.2;exitY=-0.017;exitDx=0;exitDy=0;exitPerimeter=0;" edge="1" parent="EJXPMdEUjoN_3fhHxnt8-1">
          <mxGeometry relative="1" as="geometry">
            <mxPoint x="160" y="380" as="sourcePoint" />
            <mxPoint x="330" y="379" as="targetPoint" />
          </mxGeometry>
        </mxCell>
        <mxCell id="xOTAHoX2hxh3_IF1JAQe-1" value="4: Ingreso()" style="html=1;verticalAlign=bottom;endArrow=block;entryX=0.9;entryY=0.983;entryDx=0;entryDy=0;entryPerimeter=0;" edge="1" parent="EJXPMdEUjoN_3fhHxnt8-1" target="BWuRqdvcE11-sBqwD4Od-0">
          <mxGeometry x="-0.052" relative="1" as="geometry">
            <mxPoint x="332" y="439" as="sourcePoint" />
            <mxPoint x="340" y="389" as="targetPoint" />
            <mxPoint as="offset" />
          </mxGeometry>
        </mxCell>
        <mxCell id="xOTAHoX2hxh3_IF1JAQe-2" value="5: Registrar Datos()" style="html=1;verticalAlign=bottom;endArrow=block;exitX=1.2;exitY=-0.017;exitDx=0;exitDy=0;exitPerimeter=0;" edge="1" parent="EJXPMdEUjoN_3fhHxnt8-1">
          <mxGeometry x="-0.3337" y="-20" relative="1" as="geometry">
            <mxPoint x="160" y="470" as="sourcePoint" />
            <mxPoint x="490" y="469" as="targetPoint" />
            <mxPoint as="offset" />
          </mxGeometry>
        </mxCell>
        <mxCell id="xOTAHoX2hxh3_IF1JAQe-3" value="2: Validar Datos()" style="html=1;verticalAlign=bottom;endArrow=block;exitX=1.2;exitY=-0.017;exitDx=0;exitDy=0;exitPerimeter=0;entryX=0.1;entryY=0.017;entryDx=0;entryDy=0;entryPerimeter=0;" edge="1" parent="EJXPMdEUjoN_3fhHxnt8-1" target="BWuRqdvcE11-sBqwD4Od-5">
          <mxGeometry x="-0.3333" y="1" relative="1" as="geometry">
            <mxPoint x="340" y="381" as="sourcePoint" />
            <mxPoint x="670" y="380" as="targetPoint" />
            <mxPoint as="offset" />
          </mxGeometry>
        </mxCell>
        <mxCell id="xOTAHoX2hxh3_IF1JAQe-4" value="3: Acceso()" style="html=1;verticalAlign=bottom;endArrow=block;exitX=0;exitY=1.017;exitDx=0;exitDy=0;exitPerimeter=0;entryX=1;entryY=1.017;entryDx=0;entryDy=0;entryPerimeter=0;" edge="1" parent="EJXPMdEUjoN_3fhHxnt8-1" source="BWuRqdvcE11-sBqwD4Od-5" target="BWuRqdvcE11-sBqwD4Od-2">
          <mxGeometry x="-0.3158" relative="1" as="geometry">
            <mxPoint x="510" y="431" as="sourcePoint" />
            <mxPoint x="840" y="430" as="targetPoint" />
            <mxPoint as="offset" />
          </mxGeometry>
        </mxCell>
        <mxCell id="xOTAHoX2hxh3_IF1JAQe-5" value="6: Guardar_Paciente()" style="html=1;verticalAlign=bottom;endArrow=block;" edge="1" parent="EJXPMdEUjoN_3fhHxnt8-1">
          <mxGeometry x="0.0909" y="-20" relative="1" as="geometry">
            <mxPoint x="500" y="470" as="sourcePoint" />
            <mxPoint x="720" y="470" as="targetPoint" />
            <mxPoint as="offset" />
          </mxGeometry>
        </mxCell>
        <mxCell id="xOTAHoX2hxh3_IF1JAQe-6" value="7: Ingreso Exito()" style="html=1;verticalAlign=bottom;endArrow=block;entryX=0.9;entryY=1;entryDx=0;entryDy=0;entryPerimeter=0;" edge="1" parent="EJXPMdEUjoN_3fhHxnt8-1" target="BWuRqdvcE11-sBqwD4Od-3">
          <mxGeometry x="-0.3665" y="20" relative="1" as="geometry">
            <mxPoint x="720" y="530" as="sourcePoint" />
            <mxPoint x="530" y="509" as="targetPoint" />
            <mxPoint as="offset" />
          </mxGeometry>
        </mxCell>
        <mxCell id="xOTAHoX2hxh3_IF1JAQe-7" value="8: Paciente Ingresado()" style="html=1;verticalAlign=bottom;endArrow=block;exitX=-0.2;exitY=1;exitDx=0;exitDy=0;exitPerimeter=0;entryX=0.9;entryY=1;entryDx=0;entryDy=0;entryPerimeter=0;" edge="1" parent="EJXPMdEUjoN_3fhHxnt8-1" source="BWuRqdvcE11-sBqwD4Od-3" target="BWuRqdvcE11-sBqwD4Od-1">
          <mxGeometry x="-0.465" y="20" relative="1" as="geometry">
            <mxPoint x="390" y="519" as="sourcePoint" />
            <mxPoint x="170" y="550" as="targetPoint" />
            <mxPoint as="offset" />
          </mxGeometry>
        </mxCell>
      </root>
    </mxGraphModel>
  </diagram>
  <diagram id="E-uMOQIQ8yI1EyYeG5qy" name="SECUENCIA-CONSULTAR-PACIENTE">
    <mxGraphModel dx="839" dy="477" grid="1" gridSize="10" guides="1" tooltips="1" connect="1" arrows="1" fold="1" page="1" pageScale="1" pageWidth="827" pageHeight="1169" math="0" shadow="0">
      <root>
        <mxCell id="6o8f6-EoYXxRDWXkrUSK-0" />
        <mxCell id="6o8f6-EoYXxRDWXkrUSK-1" parent="6o8f6-EoYXxRDWXkrUSK-0" />
        <mxCell id="bsFxf1SXEVaoVFL-ke3h-0" value="Administrador" style="shape=umlActor;verticalLabelPosition=bottom;verticalAlign=top;html=1;outlineConnect=0;strokeColor=#000000;strokeWidth=2;fillColor=#FFFFFF;" vertex="1" parent="6o8f6-EoYXxRDWXkrUSK-1">
          <mxGeometry x="140" y="250" width="30" height="60" as="geometry" />
        </mxCell>
        <mxCell id="bsFxf1SXEVaoVFL-ke3h-1" value="" style="endArrow=none;dashed=1;html=1;entryX=0.477;entryY=1;entryDx=0;entryDy=0;entryPerimeter=0;" edge="1" parent="6o8f6-EoYXxRDWXkrUSK-1">
          <mxGeometry width="50" height="50" relative="1" as="geometry">
            <mxPoint x="154" y="380" as="sourcePoint" />
            <mxPoint x="154.49749999999995" y="330" as="targetPoint" />
          </mxGeometry>
        </mxCell>
        <mxCell id="bsFxf1SXEVaoVFL-ke3h-2" value="" style="html=1;points=[];perimeter=orthogonalPerimeter;strokeWidth=2;fillColor=#FFB366;" vertex="1" parent="6o8f6-EoYXxRDWXkrUSK-1">
          <mxGeometry x="150" y="380" width="10" height="60" as="geometry" />
        </mxCell>
        <mxCell id="bsFxf1SXEVaoVFL-ke3h-3" value="" style="html=1;points=[];perimeter=orthogonalPerimeter;strokeWidth=2;fillColor=#FFB366;" vertex="1" parent="6o8f6-EoYXxRDWXkrUSK-1">
          <mxGeometry x="150" y="470" width="10" height="60" as="geometry" />
        </mxCell>
        <mxCell id="bsFxf1SXEVaoVFL-ke3h-4" value="" style="html=1;points=[];perimeter=orthogonalPerimeter;strokeWidth=2;fillColor=#FFB366;" vertex="1" parent="6o8f6-EoYXxRDWXkrUSK-1">
          <mxGeometry x="330" y="380" width="10" height="60" as="geometry" />
        </mxCell>
        <mxCell id="bsFxf1SXEVaoVFL-ke3h-5" value="" style="html=1;points=[];perimeter=orthogonalPerimeter;strokeWidth=2;fillColor=#FFB366;" vertex="1" parent="6o8f6-EoYXxRDWXkrUSK-1">
          <mxGeometry x="490" y="470" width="10" height="60" as="geometry" />
        </mxCell>
        <mxCell id="bsFxf1SXEVaoVFL-ke3h-6" value="" style="html=1;points=[];perimeter=orthogonalPerimeter;strokeWidth=2;fillColor=#FFB366;" vertex="1" parent="6o8f6-EoYXxRDWXkrUSK-1">
          <mxGeometry x="720" y="470" width="10" height="60" as="geometry" />
        </mxCell>
        <mxCell id="bsFxf1SXEVaoVFL-ke3h-7" value="" style="html=1;points=[];perimeter=orthogonalPerimeter;strokeWidth=2;fillColor=#FFB366;" vertex="1" parent="6o8f6-EoYXxRDWXkrUSK-1">
          <mxGeometry x="720" y="380" width="10" height="60" as="geometry" />
        </mxCell>
        <mxCell id="bsFxf1SXEVaoVFL-ke3h-8" value=":Login" style="rounded=0;whiteSpace=wrap;html=1;strokeColor=#000000;strokeWidth=2;fillColor=#FFB366;" vertex="1" parent="6o8f6-EoYXxRDWXkrUSK-1">
          <mxGeometry x="302.5" y="250" width="65" height="40" as="geometry" />
        </mxCell>
        <mxCell id="bsFxf1SXEVaoVFL-ke3h-9" value="form:Consultar" style="rounded=0;whiteSpace=wrap;html=1;strokeColor=#000000;strokeWidth=2;fillColor=#FFB366;" vertex="1" parent="6o8f6-EoYXxRDWXkrUSK-1">
          <mxGeometry x="451.25" y="250" width="87.5" height="40" as="geometry" />
        </mxCell>
        <mxCell id="bsFxf1SXEVaoVFL-ke3h-10" value="" style="endArrow=none;dashed=1;html=1;entryX=0.5;entryY=1;entryDx=0;entryDy=0;exitX=0.4;exitY=-0.033;exitDx=0;exitDy=0;exitPerimeter=0;" edge="1" parent="6o8f6-EoYXxRDWXkrUSK-1" source="bsFxf1SXEVaoVFL-ke3h-5" target="bsFxf1SXEVaoVFL-ke3h-9">
          <mxGeometry width="50" height="50" relative="1" as="geometry">
            <mxPoint x="495" y="460" as="sourcePoint" />
            <mxPoint x="490" y="300" as="targetPoint" />
          </mxGeometry>
        </mxCell>
        <mxCell id="bsFxf1SXEVaoVFL-ke3h-11" value="" style="endArrow=none;dashed=1;html=1;entryX=0.477;entryY=1;entryDx=0;entryDy=0;entryPerimeter=0;" edge="1" parent="6o8f6-EoYXxRDWXkrUSK-1">
          <mxGeometry width="50" height="50" relative="1" as="geometry">
            <mxPoint x="495" y="600" as="sourcePoint" />
            <mxPoint x="494.99749999999995" y="530" as="targetPoint" />
          </mxGeometry>
        </mxCell>
        <mxCell id="bsFxf1SXEVaoVFL-ke3h-12" value="" style="endArrow=none;dashed=1;html=1;entryX=0.477;entryY=1;entryDx=0;entryDy=0;entryPerimeter=0;exitX=0.5;exitY=0;exitDx=0;exitDy=0;exitPerimeter=0;" edge="1" parent="6o8f6-EoYXxRDWXkrUSK-1" source="bsFxf1SXEVaoVFL-ke3h-4">
          <mxGeometry width="50" height="50" relative="1" as="geometry">
            <mxPoint x="334.5" y="340" as="sourcePoint" />
            <mxPoint x="334.99749999999995" y="290" as="targetPoint" />
          </mxGeometry>
        </mxCell>
        <mxCell id="bsFxf1SXEVaoVFL-ke3h-13" value="" style="endArrow=none;dashed=1;html=1;entryX=0.477;entryY=1;entryDx=0;entryDy=0;entryPerimeter=0;" edge="1" parent="6o8f6-EoYXxRDWXkrUSK-1">
          <mxGeometry width="50" height="50" relative="1" as="geometry">
            <mxPoint x="335" y="590" as="sourcePoint" />
            <mxPoint x="334.99749999999995" y="440" as="targetPoint" />
          </mxGeometry>
        </mxCell>
        <mxCell id="bsFxf1SXEVaoVFL-ke3h-14" value="" style="endArrow=none;dashed=1;html=1;entryX=0.477;entryY=1;entryDx=0;entryDy=0;entryPerimeter=0;" edge="1" parent="6o8f6-EoYXxRDWXkrUSK-1">
          <mxGeometry width="50" height="50" relative="1" as="geometry">
            <mxPoint x="154.5" y="585" as="sourcePoint" />
            <mxPoint x="154.99749999999995" y="535" as="targetPoint" />
          </mxGeometry>
        </mxCell>
        <mxCell id="bsFxf1SXEVaoVFL-ke3h-15" value="" style="endArrow=none;dashed=1;html=1;entryX=0.477;entryY=1;entryDx=0;entryDy=0;entryPerimeter=0;" edge="1" parent="6o8f6-EoYXxRDWXkrUSK-1">
          <mxGeometry width="50" height="50" relative="1" as="geometry">
            <mxPoint x="155" y="470" as="sourcePoint" />
            <mxPoint x="154.99749999999995" y="440" as="targetPoint" />
          </mxGeometry>
        </mxCell>
        <mxCell id="bsFxf1SXEVaoVFL-ke3h-16" value="" style="endArrow=none;dashed=1;html=1;entryX=0.477;entryY=1;entryDx=0;entryDy=0;entryPerimeter=0;" edge="1" parent="6o8f6-EoYXxRDWXkrUSK-1">
          <mxGeometry width="50" height="50" relative="1" as="geometry">
            <mxPoint x="724.5" y="580" as="sourcePoint" />
            <mxPoint x="724.9975" y="530" as="targetPoint" />
          </mxGeometry>
        </mxCell>
        <mxCell id="bsFxf1SXEVaoVFL-ke3h-17" value=":Hclinica_BD" style="rounded=0;whiteSpace=wrap;html=1;strokeColor=#000000;strokeWidth=2;fillColor=#FFB366;" vertex="1" parent="6o8f6-EoYXxRDWXkrUSK-1">
          <mxGeometry x="681.25" y="250" width="87.5" height="40" as="geometry" />
        </mxCell>
        <mxCell id="bsFxf1SXEVaoVFL-ke3h-18" value="" style="endArrow=none;dashed=1;html=1;entryX=0.477;entryY=1;entryDx=0;entryDy=0;entryPerimeter=0;" edge="1" parent="6o8f6-EoYXxRDWXkrUSK-1">
          <mxGeometry width="50" height="50" relative="1" as="geometry">
            <mxPoint x="725" y="470" as="sourcePoint" />
            <mxPoint x="724.9975" y="440" as="targetPoint" />
          </mxGeometry>
        </mxCell>
        <mxCell id="bsFxf1SXEVaoVFL-ke3h-19" value="" style="endArrow=none;dashed=1;html=1;exitX=0.5;exitY=0;exitDx=0;exitDy=0;exitPerimeter=0;" edge="1" parent="6o8f6-EoYXxRDWXkrUSK-1" source="bsFxf1SXEVaoVFL-ke3h-7">
          <mxGeometry width="50" height="50" relative="1" as="geometry">
            <mxPoint x="724.5" y="330" as="sourcePoint" />
            <mxPoint x="725" y="290" as="targetPoint" />
          </mxGeometry>
        </mxCell>
        <mxCell id="bsFxf1SXEVaoVFL-ke3h-20" value="1: Ingresar al Sistema()" style="html=1;verticalAlign=bottom;endArrow=block;exitX=1.2;exitY=-0.017;exitDx=0;exitDy=0;exitPerimeter=0;" edge="1" parent="6o8f6-EoYXxRDWXkrUSK-1">
          <mxGeometry relative="1" as="geometry">
            <mxPoint x="160" y="380" as="sourcePoint" />
            <mxPoint x="330" y="379" as="targetPoint" />
          </mxGeometry>
        </mxCell>
        <mxCell id="bsFxf1SXEVaoVFL-ke3h-21" value="4: Ingreso()" style="html=1;verticalAlign=bottom;endArrow=block;entryX=0.9;entryY=0.983;entryDx=0;entryDy=0;entryPerimeter=0;" edge="1" parent="6o8f6-EoYXxRDWXkrUSK-1" target="bsFxf1SXEVaoVFL-ke3h-2">
          <mxGeometry x="-0.052" relative="1" as="geometry">
            <mxPoint x="332" y="439" as="sourcePoint" />
            <mxPoint x="340" y="389" as="targetPoint" />
            <mxPoint as="offset" />
          </mxGeometry>
        </mxCell>
        <mxCell id="bsFxf1SXEVaoVFL-ke3h-22" value="5: Buscar Datos()" style="html=1;verticalAlign=bottom;endArrow=block;exitX=1.2;exitY=-0.017;exitDx=0;exitDy=0;exitPerimeter=0;" edge="1" parent="6o8f6-EoYXxRDWXkrUSK-1">
          <mxGeometry x="-0.3337" y="-20" relative="1" as="geometry">
            <mxPoint x="160" y="470" as="sourcePoint" />
            <mxPoint x="490" y="469" as="targetPoint" />
            <mxPoint as="offset" />
          </mxGeometry>
        </mxCell>
        <mxCell id="bsFxf1SXEVaoVFL-ke3h-23" value="2: Validar Datos()" style="html=1;verticalAlign=bottom;endArrow=block;exitX=1.2;exitY=-0.017;exitDx=0;exitDy=0;exitPerimeter=0;entryX=0.1;entryY=0.017;entryDx=0;entryDy=0;entryPerimeter=0;" edge="1" parent="6o8f6-EoYXxRDWXkrUSK-1" target="bsFxf1SXEVaoVFL-ke3h-7">
          <mxGeometry x="-0.3333" y="1" relative="1" as="geometry">
            <mxPoint x="340" y="381" as="sourcePoint" />
            <mxPoint x="670" y="380" as="targetPoint" />
            <mxPoint as="offset" />
          </mxGeometry>
        </mxCell>
        <mxCell id="bsFxf1SXEVaoVFL-ke3h-24" value="3: Acceso()" style="html=1;verticalAlign=bottom;endArrow=block;exitX=0;exitY=1.017;exitDx=0;exitDy=0;exitPerimeter=0;entryX=1;entryY=1.017;entryDx=0;entryDy=0;entryPerimeter=0;" edge="1" parent="6o8f6-EoYXxRDWXkrUSK-1" source="bsFxf1SXEVaoVFL-ke3h-7" target="bsFxf1SXEVaoVFL-ke3h-4">
          <mxGeometry x="-0.3158" relative="1" as="geometry">
            <mxPoint x="510" y="431" as="sourcePoint" />
            <mxPoint x="840" y="430" as="targetPoint" />
            <mxPoint as="offset" />
          </mxGeometry>
        </mxCell>
        <mxCell id="bsFxf1SXEVaoVFL-ke3h-25" value="6: Buscar_Paciente()" style="html=1;verticalAlign=bottom;endArrow=block;" edge="1" parent="6o8f6-EoYXxRDWXkrUSK-1">
          <mxGeometry x="0.0909" y="-20" relative="1" as="geometry">
            <mxPoint x="500" y="470" as="sourcePoint" />
            <mxPoint x="720" y="470" as="targetPoint" />
            <mxPoint as="offset" />
          </mxGeometry>
        </mxCell>
        <mxCell id="bsFxf1SXEVaoVFL-ke3h-26" value="7: Usuario Encontrado()" style="html=1;verticalAlign=bottom;endArrow=block;entryX=0.9;entryY=1;entryDx=0;entryDy=0;entryPerimeter=0;" edge="1" parent="6o8f6-EoYXxRDWXkrUSK-1" target="bsFxf1SXEVaoVFL-ke3h-5">
          <mxGeometry x="-0.3665" y="20" relative="1" as="geometry">
            <mxPoint x="720" y="530" as="sourcePoint" />
            <mxPoint x="530" y="509" as="targetPoint" />
            <mxPoint as="offset" />
          </mxGeometry>
        </mxCell>
        <mxCell id="bsFxf1SXEVaoVFL-ke3h-27" value="8: Presentar Datos()" style="html=1;verticalAlign=bottom;endArrow=block;exitX=-0.2;exitY=1;exitDx=0;exitDy=0;exitPerimeter=0;entryX=0.9;entryY=1;entryDx=0;entryDy=0;entryPerimeter=0;" edge="1" parent="6o8f6-EoYXxRDWXkrUSK-1" source="bsFxf1SXEVaoVFL-ke3h-5" target="bsFxf1SXEVaoVFL-ke3h-3">
          <mxGeometry x="-0.465" y="20" relative="1" as="geometry">
            <mxPoint x="390" y="519" as="sourcePoint" />
            <mxPoint x="170" y="550" as="targetPoint" />
            <mxPoint as="offset" />
          </mxGeometry>
        </mxCell>
      </root>
    </mxGraphModel>
  </diagram>
  <diagram id="HrF10OETFCZcXlM8326b" name="SECUENCIA-HISTORIA">
    <mxGraphModel dx="839" dy="477" grid="1" gridSize="10" guides="1" tooltips="1" connect="1" arrows="1" fold="1" page="1" pageScale="1" pageWidth="827" pageHeight="1169" math="0" shadow="0">
      <root>
        <mxCell id="Qojo7z43WXYGc3xqFINd-0" />
        <mxCell id="Qojo7z43WXYGc3xqFINd-1" parent="Qojo7z43WXYGc3xqFINd-0" />
        <mxCell id="Qojo7z43WXYGc3xqFINd-2" value="Administrador, Medico" style="shape=umlActor;verticalLabelPosition=bottom;verticalAlign=top;html=1;outlineConnect=0;strokeColor=#000000;strokeWidth=2;fillColor=#FFFFFF;" vertex="1" parent="Qojo7z43WXYGc3xqFINd-1">
          <mxGeometry x="140" y="250" width="30" height="60" as="geometry" />
        </mxCell>
        <mxCell id="Qojo7z43WXYGc3xqFINd-3" value="" style="endArrow=none;dashed=1;html=1;entryX=0.477;entryY=1;entryDx=0;entryDy=0;entryPerimeter=0;" edge="1" parent="Qojo7z43WXYGc3xqFINd-1">
          <mxGeometry width="50" height="50" relative="1" as="geometry">
            <mxPoint x="154" y="380" as="sourcePoint" />
            <mxPoint x="154.49749999999995" y="330" as="targetPoint" />
          </mxGeometry>
        </mxCell>
        <mxCell id="Qojo7z43WXYGc3xqFINd-4" value="" style="html=1;points=[];perimeter=orthogonalPerimeter;strokeWidth=2;fillColor=#FFB366;" vertex="1" parent="Qojo7z43WXYGc3xqFINd-1">
          <mxGeometry x="150" y="380" width="10" height="60" as="geometry" />
        </mxCell>
        <mxCell id="Qojo7z43WXYGc3xqFINd-5" value="" style="html=1;points=[];perimeter=orthogonalPerimeter;strokeWidth=2;fillColor=#FFB366;" vertex="1" parent="Qojo7z43WXYGc3xqFINd-1">
          <mxGeometry x="150" y="470" width="10" height="60" as="geometry" />
        </mxCell>
        <mxCell id="Qojo7z43WXYGc3xqFINd-6" value="" style="html=1;points=[];perimeter=orthogonalPerimeter;strokeWidth=2;fillColor=#FFB366;" vertex="1" parent="Qojo7z43WXYGc3xqFINd-1">
          <mxGeometry x="330" y="380" width="10" height="60" as="geometry" />
        </mxCell>
        <mxCell id="Qojo7z43WXYGc3xqFINd-7" value="" style="html=1;points=[];perimeter=orthogonalPerimeter;strokeWidth=2;fillColor=#FFB366;" vertex="1" parent="Qojo7z43WXYGc3xqFINd-1">
          <mxGeometry x="490" y="470" width="10" height="60" as="geometry" />
        </mxCell>
        <mxCell id="Qojo7z43WXYGc3xqFINd-8" value="" style="html=1;points=[];perimeter=orthogonalPerimeter;strokeWidth=2;fillColor=#FFB366;" vertex="1" parent="Qojo7z43WXYGc3xqFINd-1">
          <mxGeometry x="720" y="470" width="10" height="60" as="geometry" />
        </mxCell>
        <mxCell id="Qojo7z43WXYGc3xqFINd-9" value="" style="html=1;points=[];perimeter=orthogonalPerimeter;strokeWidth=2;fillColor=#FFB366;" vertex="1" parent="Qojo7z43WXYGc3xqFINd-1">
          <mxGeometry x="720" y="380" width="10" height="60" as="geometry" />
        </mxCell>
        <mxCell id="Qojo7z43WXYGc3xqFINd-10" value=":Login" style="rounded=0;whiteSpace=wrap;html=1;strokeColor=#000000;strokeWidth=2;fillColor=#FFB366;" vertex="1" parent="Qojo7z43WXYGc3xqFINd-1">
          <mxGeometry x="302.5" y="250" width="65" height="40" as="geometry" />
        </mxCell>
        <mxCell id="Qojo7z43WXYGc3xqFINd-11" value="form:HistoriaClinica" style="rounded=0;whiteSpace=wrap;html=1;strokeColor=#000000;strokeWidth=2;fillColor=#FFB366;" vertex="1" parent="Qojo7z43WXYGc3xqFINd-1">
          <mxGeometry x="440.63" y="250" width="108.75" height="40" as="geometry" />
        </mxCell>
        <mxCell id="Qojo7z43WXYGc3xqFINd-12" value="" style="endArrow=none;dashed=1;html=1;entryX=0.5;entryY=1;entryDx=0;entryDy=0;exitX=0.4;exitY=-0.033;exitDx=0;exitDy=0;exitPerimeter=0;" edge="1" parent="Qojo7z43WXYGc3xqFINd-1" source="Qojo7z43WXYGc3xqFINd-7" target="Qojo7z43WXYGc3xqFINd-11">
          <mxGeometry width="50" height="50" relative="1" as="geometry">
            <mxPoint x="495" y="460" as="sourcePoint" />
            <mxPoint x="490" y="300" as="targetPoint" />
          </mxGeometry>
        </mxCell>
        <mxCell id="Qojo7z43WXYGc3xqFINd-13" value="" style="endArrow=none;dashed=1;html=1;entryX=0.477;entryY=1;entryDx=0;entryDy=0;entryPerimeter=0;" edge="1" parent="Qojo7z43WXYGc3xqFINd-1">
          <mxGeometry width="50" height="50" relative="1" as="geometry">
            <mxPoint x="495" y="600" as="sourcePoint" />
            <mxPoint x="494.99749999999995" y="530" as="targetPoint" />
          </mxGeometry>
        </mxCell>
        <mxCell id="Qojo7z43WXYGc3xqFINd-14" value="" style="endArrow=none;dashed=1;html=1;entryX=0.477;entryY=1;entryDx=0;entryDy=0;entryPerimeter=0;exitX=0.5;exitY=0;exitDx=0;exitDy=0;exitPerimeter=0;" edge="1" parent="Qojo7z43WXYGc3xqFINd-1" source="Qojo7z43WXYGc3xqFINd-6">
          <mxGeometry width="50" height="50" relative="1" as="geometry">
            <mxPoint x="334.5" y="340" as="sourcePoint" />
            <mxPoint x="334.99749999999995" y="290" as="targetPoint" />
          </mxGeometry>
        </mxCell>
        <mxCell id="Qojo7z43WXYGc3xqFINd-15" value="" style="endArrow=none;dashed=1;html=1;entryX=0.477;entryY=1;entryDx=0;entryDy=0;entryPerimeter=0;" edge="1" parent="Qojo7z43WXYGc3xqFINd-1">
          <mxGeometry width="50" height="50" relative="1" as="geometry">
            <mxPoint x="335" y="590" as="sourcePoint" />
            <mxPoint x="334.99749999999995" y="440" as="targetPoint" />
          </mxGeometry>
        </mxCell>
        <mxCell id="Qojo7z43WXYGc3xqFINd-16" value="" style="endArrow=none;dashed=1;html=1;entryX=0.477;entryY=1;entryDx=0;entryDy=0;entryPerimeter=0;" edge="1" parent="Qojo7z43WXYGc3xqFINd-1">
          <mxGeometry width="50" height="50" relative="1" as="geometry">
            <mxPoint x="154.5" y="585" as="sourcePoint" />
            <mxPoint x="154.99749999999995" y="535" as="targetPoint" />
          </mxGeometry>
        </mxCell>
        <mxCell id="Qojo7z43WXYGc3xqFINd-17" value="" style="endArrow=none;dashed=1;html=1;entryX=0.477;entryY=1;entryDx=0;entryDy=0;entryPerimeter=0;" edge="1" parent="Qojo7z43WXYGc3xqFINd-1">
          <mxGeometry width="50" height="50" relative="1" as="geometry">
            <mxPoint x="155" y="470" as="sourcePoint" />
            <mxPoint x="154.99749999999995" y="440" as="targetPoint" />
          </mxGeometry>
        </mxCell>
        <mxCell id="Qojo7z43WXYGc3xqFINd-18" value="" style="endArrow=none;dashed=1;html=1;entryX=0.477;entryY=1;entryDx=0;entryDy=0;entryPerimeter=0;" edge="1" parent="Qojo7z43WXYGc3xqFINd-1">
          <mxGeometry width="50" height="50" relative="1" as="geometry">
            <mxPoint x="724.5" y="580" as="sourcePoint" />
            <mxPoint x="724.9975" y="530" as="targetPoint" />
          </mxGeometry>
        </mxCell>
        <mxCell id="Qojo7z43WXYGc3xqFINd-19" value=":Hclinica_BD" style="rounded=0;whiteSpace=wrap;html=1;strokeColor=#000000;strokeWidth=2;fillColor=#FFB366;" vertex="1" parent="Qojo7z43WXYGc3xqFINd-1">
          <mxGeometry x="681.25" y="250" width="87.5" height="40" as="geometry" />
        </mxCell>
        <mxCell id="Qojo7z43WXYGc3xqFINd-20" value="" style="endArrow=none;dashed=1;html=1;entryX=0.477;entryY=1;entryDx=0;entryDy=0;entryPerimeter=0;" edge="1" parent="Qojo7z43WXYGc3xqFINd-1">
          <mxGeometry width="50" height="50" relative="1" as="geometry">
            <mxPoint x="725" y="470" as="sourcePoint" />
            <mxPoint x="724.9975" y="440" as="targetPoint" />
          </mxGeometry>
        </mxCell>
        <mxCell id="Qojo7z43WXYGc3xqFINd-21" value="" style="endArrow=none;dashed=1;html=1;exitX=0.5;exitY=0;exitDx=0;exitDy=0;exitPerimeter=0;" edge="1" parent="Qojo7z43WXYGc3xqFINd-1" source="Qojo7z43WXYGc3xqFINd-9">
          <mxGeometry width="50" height="50" relative="1" as="geometry">
            <mxPoint x="724.5" y="330" as="sourcePoint" />
            <mxPoint x="725" y="290" as="targetPoint" />
          </mxGeometry>
        </mxCell>
        <mxCell id="Qojo7z43WXYGc3xqFINd-22" value="1: Ingresar al Sistema()" style="html=1;verticalAlign=bottom;endArrow=block;exitX=1.2;exitY=-0.017;exitDx=0;exitDy=0;exitPerimeter=0;" edge="1" parent="Qojo7z43WXYGc3xqFINd-1">
          <mxGeometry relative="1" as="geometry">
            <mxPoint x="160" y="380" as="sourcePoint" />
            <mxPoint x="330" y="379" as="targetPoint" />
          </mxGeometry>
        </mxCell>
        <mxCell id="Qojo7z43WXYGc3xqFINd-23" value="4: Ingreso()" style="html=1;verticalAlign=bottom;endArrow=block;entryX=0.9;entryY=0.983;entryDx=0;entryDy=0;entryPerimeter=0;" edge="1" parent="Qojo7z43WXYGc3xqFINd-1" target="Qojo7z43WXYGc3xqFINd-4">
          <mxGeometry x="-0.052" relative="1" as="geometry">
            <mxPoint x="332" y="439" as="sourcePoint" />
            <mxPoint x="340" y="389" as="targetPoint" />
            <mxPoint as="offset" />
          </mxGeometry>
        </mxCell>
        <mxCell id="Qojo7z43WXYGc3xqFINd-24" value="5: Buscar Cedula()" style="html=1;verticalAlign=bottom;endArrow=block;exitX=1.2;exitY=-0.017;exitDx=0;exitDy=0;exitPerimeter=0;" edge="1" parent="Qojo7z43WXYGc3xqFINd-1">
          <mxGeometry x="-0.3337" y="-20" relative="1" as="geometry">
            <mxPoint x="160" y="470" as="sourcePoint" />
            <mxPoint x="490" y="469" as="targetPoint" />
            <mxPoint as="offset" />
          </mxGeometry>
        </mxCell>
        <mxCell id="Qojo7z43WXYGc3xqFINd-25" value="2: Validar Datos()" style="html=1;verticalAlign=bottom;endArrow=block;exitX=1.2;exitY=-0.017;exitDx=0;exitDy=0;exitPerimeter=0;entryX=0.1;entryY=0.017;entryDx=0;entryDy=0;entryPerimeter=0;" edge="1" parent="Qojo7z43WXYGc3xqFINd-1" target="Qojo7z43WXYGc3xqFINd-9">
          <mxGeometry x="-0.3333" y="1" relative="1" as="geometry">
            <mxPoint x="340" y="381" as="sourcePoint" />
            <mxPoint x="670" y="380" as="targetPoint" />
            <mxPoint as="offset" />
          </mxGeometry>
        </mxCell>
        <mxCell id="Qojo7z43WXYGc3xqFINd-26" value="3: Acceso()" style="html=1;verticalAlign=bottom;endArrow=block;exitX=0;exitY=1.017;exitDx=0;exitDy=0;exitPerimeter=0;entryX=1;entryY=1.017;entryDx=0;entryDy=0;entryPerimeter=0;" edge="1" parent="Qojo7z43WXYGc3xqFINd-1" source="Qojo7z43WXYGc3xqFINd-9" target="Qojo7z43WXYGc3xqFINd-6">
          <mxGeometry x="-0.3158" relative="1" as="geometry">
            <mxPoint x="510" y="431" as="sourcePoint" />
            <mxPoint x="840" y="430" as="targetPoint" />
            <mxPoint as="offset" />
          </mxGeometry>
        </mxCell>
        <mxCell id="Qojo7z43WXYGc3xqFINd-27" value="6: Buscar_Historia()" style="html=1;verticalAlign=bottom;endArrow=block;" edge="1" parent="Qojo7z43WXYGc3xqFINd-1">
          <mxGeometry x="0.0909" y="-20" relative="1" as="geometry">
            <mxPoint x="500" y="470" as="sourcePoint" />
            <mxPoint x="720" y="470" as="targetPoint" />
            <mxPoint as="offset" />
          </mxGeometry>
        </mxCell>
        <mxCell id="Qojo7z43WXYGc3xqFINd-28" value="7: Historia Encontrada()" style="html=1;verticalAlign=bottom;endArrow=block;entryX=0.9;entryY=1;entryDx=0;entryDy=0;entryPerimeter=0;" edge="1" parent="Qojo7z43WXYGc3xqFINd-1" target="Qojo7z43WXYGc3xqFINd-7">
          <mxGeometry x="-0.3665" y="20" relative="1" as="geometry">
            <mxPoint x="720" y="530" as="sourcePoint" />
            <mxPoint x="530" y="509" as="targetPoint" />
            <mxPoint as="offset" />
          </mxGeometry>
        </mxCell>
        <mxCell id="Qojo7z43WXYGc3xqFINd-29" value="8: Presentar Reporte()" style="html=1;verticalAlign=bottom;endArrow=block;exitX=-0.2;exitY=1;exitDx=0;exitDy=0;exitPerimeter=0;entryX=0.9;entryY=1;entryDx=0;entryDy=0;entryPerimeter=0;" edge="1" parent="Qojo7z43WXYGc3xqFINd-1" source="Qojo7z43WXYGc3xqFINd-7" target="Qojo7z43WXYGc3xqFINd-5">
          <mxGeometry x="-0.465" y="20" relative="1" as="geometry">
            <mxPoint x="390" y="519" as="sourcePoint" />
            <mxPoint x="170" y="550" as="targetPoint" />
            <mxPoint as="offset" />
          </mxGeometry>
        </mxCell>
      </root>
    </mxGraphModel>
  </diagram>
  <diagram id="4XUt1hzdWKepXPQVgdmk" name="SECUENCIA-ACTUALIZAR -DATOS">
    <mxGraphModel dx="839" dy="477" grid="1" gridSize="10" guides="1" tooltips="1" connect="1" arrows="1" fold="1" page="1" pageScale="1" pageWidth="827" pageHeight="1169" math="0" shadow="0">
      <root>
        <mxCell id="HLpBuHhDxQK3FDBGswlP-0" />
        <mxCell id="HLpBuHhDxQK3FDBGswlP-1" parent="HLpBuHhDxQK3FDBGswlP-0" />
        <mxCell id="HLpBuHhDxQK3FDBGswlP-2" value="Administrador, Medico" style="shape=umlActor;verticalLabelPosition=bottom;verticalAlign=top;html=1;outlineConnect=0;strokeColor=#000000;strokeWidth=2;fillColor=#FFFFFF;" vertex="1" parent="HLpBuHhDxQK3FDBGswlP-1">
          <mxGeometry x="140" y="250" width="30" height="60" as="geometry" />
        </mxCell>
        <mxCell id="HLpBuHhDxQK3FDBGswlP-3" value="" style="endArrow=none;dashed=1;html=1;entryX=0.477;entryY=1;entryDx=0;entryDy=0;entryPerimeter=0;" edge="1" parent="HLpBuHhDxQK3FDBGswlP-1">
          <mxGeometry width="50" height="50" relative="1" as="geometry">
            <mxPoint x="154" y="380" as="sourcePoint" />
            <mxPoint x="154.49749999999995" y="330" as="targetPoint" />
          </mxGeometry>
        </mxCell>
        <mxCell id="HLpBuHhDxQK3FDBGswlP-4" value="" style="html=1;points=[];perimeter=orthogonalPerimeter;strokeWidth=2;fillColor=#FFB366;" vertex="1" parent="HLpBuHhDxQK3FDBGswlP-1">
          <mxGeometry x="150" y="380" width="10" height="60" as="geometry" />
        </mxCell>
        <mxCell id="HLpBuHhDxQK3FDBGswlP-5" value="" style="html=1;points=[];perimeter=orthogonalPerimeter;strokeWidth=2;fillColor=#FFB366;" vertex="1" parent="HLpBuHhDxQK3FDBGswlP-1">
          <mxGeometry x="150" y="470" width="10" height="60" as="geometry" />
        </mxCell>
        <mxCell id="HLpBuHhDxQK3FDBGswlP-6" value="" style="html=1;points=[];perimeter=orthogonalPerimeter;strokeWidth=2;fillColor=#FFB366;" vertex="1" parent="HLpBuHhDxQK3FDBGswlP-1">
          <mxGeometry x="330" y="380" width="10" height="60" as="geometry" />
        </mxCell>
        <mxCell id="HLpBuHhDxQK3FDBGswlP-7" value="" style="html=1;points=[];perimeter=orthogonalPerimeter;strokeWidth=2;fillColor=#FFB366;" vertex="1" parent="HLpBuHhDxQK3FDBGswlP-1">
          <mxGeometry x="330" y="595" width="10" height="65" as="geometry" />
        </mxCell>
        <mxCell id="HLpBuHhDxQK3FDBGswlP-9" value="" style="html=1;points=[];perimeter=orthogonalPerimeter;strokeWidth=2;fillColor=#FFB366;" vertex="1" parent="HLpBuHhDxQK3FDBGswlP-1">
          <mxGeometry x="720" y="470" width="10" height="40" as="geometry" />
        </mxCell>
        <mxCell id="HLpBuHhDxQK3FDBGswlP-10" value="form:Actualizar" style="rounded=0;whiteSpace=wrap;html=1;strokeColor=#000000;strokeWidth=2;fillColor=#FFB366;" vertex="1" parent="HLpBuHhDxQK3FDBGswlP-1">
          <mxGeometry x="291.25" y="250" width="87.5" height="40" as="geometry" />
        </mxCell>
        <mxCell id="HLpBuHhDxQK3FDBGswlP-12" value="" style="endArrow=none;dashed=1;html=1;entryX=0.4;entryY=1.05;entryDx=0;entryDy=0;exitX=0.4;exitY=-0.033;exitDx=0;exitDy=0;exitPerimeter=0;entryPerimeter=0;" edge="1" parent="HLpBuHhDxQK3FDBGswlP-1" source="HLpBuHhDxQK3FDBGswlP-7" target="HLpBuHhDxQK3FDBGswlP-32">
          <mxGeometry width="50" height="50" relative="1" as="geometry">
            <mxPoint x="495" y="460" as="sourcePoint" />
            <mxPoint x="495.005" y="290" as="targetPoint" />
          </mxGeometry>
        </mxCell>
        <mxCell id="HLpBuHhDxQK3FDBGswlP-13" value="" style="endArrow=none;dashed=1;html=1;entryX=0.4;entryY=1.075;entryDx=0;entryDy=0;entryPerimeter=0;exitX=0.5;exitY=-0.025;exitDx=0;exitDy=0;exitPerimeter=0;" edge="1" parent="HLpBuHhDxQK3FDBGswlP-1" source="HLpBuHhDxQK3FDBGswlP-32" target="HLpBuHhDxQK3FDBGswlP-31">
          <mxGeometry width="50" height="50" relative="1" as="geometry">
            <mxPoint x="495" y="600" as="sourcePoint" />
            <mxPoint x="390" y="500" as="targetPoint" />
          </mxGeometry>
        </mxCell>
        <mxCell id="HLpBuHhDxQK3FDBGswlP-14" value="" style="endArrow=none;dashed=1;html=1;entryX=0.477;entryY=1;entryDx=0;entryDy=0;entryPerimeter=0;exitX=0.5;exitY=0;exitDx=0;exitDy=0;exitPerimeter=0;" edge="1" parent="HLpBuHhDxQK3FDBGswlP-1" source="HLpBuHhDxQK3FDBGswlP-6">
          <mxGeometry width="50" height="50" relative="1" as="geometry">
            <mxPoint x="334.5" y="340" as="sourcePoint" />
            <mxPoint x="334.99749999999995" y="290" as="targetPoint" />
          </mxGeometry>
        </mxCell>
        <mxCell id="HLpBuHhDxQK3FDBGswlP-15" value="" style="endArrow=none;dashed=1;html=1;entryX=0.477;entryY=1;entryDx=0;entryDy=0;entryPerimeter=0;" edge="1" parent="HLpBuHhDxQK3FDBGswlP-1">
          <mxGeometry width="50" height="50" relative="1" as="geometry">
            <mxPoint x="335" y="470" as="sourcePoint" />
            <mxPoint x="334.99749999999995" y="440" as="targetPoint" />
          </mxGeometry>
        </mxCell>
        <mxCell id="HLpBuHhDxQK3FDBGswlP-16" value="" style="endArrow=none;dashed=1;html=1;entryX=0.477;entryY=1;entryDx=0;entryDy=0;entryPerimeter=0;" edge="1" parent="HLpBuHhDxQK3FDBGswlP-1">
          <mxGeometry width="50" height="50" relative="1" as="geometry">
            <mxPoint x="154.5" y="585" as="sourcePoint" />
            <mxPoint x="154.99749999999995" y="535" as="targetPoint" />
          </mxGeometry>
        </mxCell>
        <mxCell id="HLpBuHhDxQK3FDBGswlP-17" value="" style="endArrow=none;dashed=1;html=1;entryX=0.477;entryY=1;entryDx=0;entryDy=0;entryPerimeter=0;" edge="1" parent="HLpBuHhDxQK3FDBGswlP-1">
          <mxGeometry width="50" height="50" relative="1" as="geometry">
            <mxPoint x="155" y="470" as="sourcePoint" />
            <mxPoint x="154.99749999999995" y="440" as="targetPoint" />
          </mxGeometry>
        </mxCell>
        <mxCell id="HLpBuHhDxQK3FDBGswlP-19" value=":Hclinica_BD" style="rounded=0;whiteSpace=wrap;html=1;strokeColor=#000000;strokeWidth=2;fillColor=#FFB366;" vertex="1" parent="HLpBuHhDxQK3FDBGswlP-1">
          <mxGeometry x="681.25" y="250" width="87.5" height="40" as="geometry" />
        </mxCell>
        <mxCell id="HLpBuHhDxQK3FDBGswlP-20" value="" style="endArrow=none;dashed=1;html=1;entryX=0.477;entryY=1;entryDx=0;entryDy=0;entryPerimeter=0;" edge="1" parent="HLpBuHhDxQK3FDBGswlP-1">
          <mxGeometry width="50" height="50" relative="1" as="geometry">
            <mxPoint x="725" y="470" as="sourcePoint" />
            <mxPoint x="724.9975" y="440" as="targetPoint" />
          </mxGeometry>
        </mxCell>
        <mxCell id="HLpBuHhDxQK3FDBGswlP-21" value="" style="endArrow=none;dashed=1;html=1;exitX=0.5;exitY=0;exitDx=0;exitDy=0;exitPerimeter=0;" edge="1" parent="HLpBuHhDxQK3FDBGswlP-1" source="HLpBuHhDxQK3FDBGswlP-9">
          <mxGeometry width="50" height="50" relative="1" as="geometry">
            <mxPoint x="724.5" y="330" as="sourcePoint" />
            <mxPoint x="725" y="290" as="targetPoint" />
          </mxGeometry>
        </mxCell>
        <mxCell id="HLpBuHhDxQK3FDBGswlP-22" value="1: Autenticar()" style="html=1;verticalAlign=bottom;endArrow=block;" edge="1" parent="HLpBuHhDxQK3FDBGswlP-1">
          <mxGeometry relative="1" as="geometry">
            <mxPoint x="160" y="379" as="sourcePoint" />
            <mxPoint x="330" y="379" as="targetPoint" />
          </mxGeometry>
        </mxCell>
        <mxCell id="HLpBuHhDxQK3FDBGswlP-23" value="2: Recibir Exito()" style="html=1;verticalAlign=bottom;endArrow=block;entryX=0.9;entryY=0.983;entryDx=0;entryDy=0;entryPerimeter=0;" edge="1" parent="HLpBuHhDxQK3FDBGswlP-1" target="HLpBuHhDxQK3FDBGswlP-4">
          <mxGeometry x="-0.052" relative="1" as="geometry">
            <mxPoint x="332" y="439" as="sourcePoint" />
            <mxPoint x="340" y="389" as="targetPoint" />
            <mxPoint as="offset" />
          </mxGeometry>
        </mxCell>
        <mxCell id="HLpBuHhDxQK3FDBGswlP-25" value="4: Realizar Busqueda()" style="html=1;verticalAlign=bottom;endArrow=block;entryX=0.1;entryY=0.017;entryDx=0;entryDy=0;entryPerimeter=0;" edge="1" parent="HLpBuHhDxQK3FDBGswlP-1" target="HLpBuHhDxQK3FDBGswlP-9">
          <mxGeometry x="-0.3333" y="1" relative="1" as="geometry">
            <mxPoint x="335" y="471" as="sourcePoint" />
            <mxPoint x="670" y="380" as="targetPoint" />
            <mxPoint as="offset" />
          </mxGeometry>
        </mxCell>
        <mxCell id="HLpBuHhDxQK3FDBGswlP-26" value="6: Usuario Encontrado()" style="html=1;verticalAlign=bottom;endArrow=block;exitX=-0.2;exitY=-0.025;exitDx=0;exitDy=0;exitPerimeter=0;" edge="1" parent="HLpBuHhDxQK3FDBGswlP-1" source="HLpBuHhDxQK3FDBGswlP-35">
          <mxGeometry x="0.0026" relative="1" as="geometry">
            <mxPoint x="510" y="431" as="sourcePoint" />
            <mxPoint x="335" y="529" as="targetPoint" />
            <mxPoint as="offset" />
          </mxGeometry>
        </mxCell>
        <mxCell id="HLpBuHhDxQK3FDBGswlP-28" value="8: Confirmar Mensaje()" style="html=1;verticalAlign=bottom;endArrow=block;entryX=0.9;entryY=1;entryDx=0;entryDy=0;entryPerimeter=0;" edge="1" parent="HLpBuHhDxQK3FDBGswlP-1" target="HLpBuHhDxQK3FDBGswlP-7">
          <mxGeometry x="0.1094" y="20" relative="1" as="geometry">
            <mxPoint x="723" y="660" as="sourcePoint" />
            <mxPoint x="530" y="509" as="targetPoint" />
            <mxPoint as="offset" />
          </mxGeometry>
        </mxCell>
        <mxCell id="HLpBuHhDxQK3FDBGswlP-29" value="9: Ver Cambios()" style="html=1;verticalAlign=bottom;endArrow=block;entryX=1;entryY=0.95;entryDx=0;entryDy=0;entryPerimeter=0;" edge="1" parent="HLpBuHhDxQK3FDBGswlP-1" target="HLpBuHhDxQK3FDBGswlP-30">
          <mxGeometry x="-0.0651" relative="1" as="geometry">
            <mxPoint x="329" y="642" as="sourcePoint" />
            <mxPoint x="170" y="550" as="targetPoint" />
            <mxPoint as="offset" />
          </mxGeometry>
        </mxCell>
        <mxCell id="HLpBuHhDxQK3FDBGswlP-30" value="" style="html=1;points=[];perimeter=orthogonalPerimeter;strokeWidth=2;fillColor=#FFB366;" vertex="1" parent="HLpBuHhDxQK3FDBGswlP-1">
          <mxGeometry x="150" y="585" width="10" height="60" as="geometry" />
        </mxCell>
        <mxCell id="HLpBuHhDxQK3FDBGswlP-31" value="" style="html=1;points=[];perimeter=orthogonalPerimeter;strokeWidth=2;fillColor=#FFB366;" vertex="1" parent="HLpBuHhDxQK3FDBGswlP-1">
          <mxGeometry x="330" y="470" width="10" height="40" as="geometry" />
        </mxCell>
        <mxCell id="HLpBuHhDxQK3FDBGswlP-32" value="" style="html=1;points=[];perimeter=orthogonalPerimeter;strokeWidth=2;fillColor=#FFB366;" vertex="1" parent="HLpBuHhDxQK3FDBGswlP-1">
          <mxGeometry x="330" y="530" width="10" height="40" as="geometry" />
        </mxCell>
        <mxCell id="HLpBuHhDxQK3FDBGswlP-33" value="3: Modificar Cuenta()" style="html=1;verticalAlign=bottom;endArrow=block;" edge="1" parent="HLpBuHhDxQK3FDBGswlP-1">
          <mxGeometry relative="1" as="geometry">
            <mxPoint x="160" y="470" as="sourcePoint" />
            <mxPoint x="330" y="470" as="targetPoint" />
          </mxGeometry>
        </mxCell>
        <mxCell id="HLpBuHhDxQK3FDBGswlP-8" value="" style="html=1;points=[];perimeter=orthogonalPerimeter;strokeWidth=2;fillColor=#FFB366;" vertex="1" parent="HLpBuHhDxQK3FDBGswlP-1">
          <mxGeometry x="720" y="595" width="10" height="65" as="geometry" />
        </mxCell>
        <mxCell id="HLpBuHhDxQK3FDBGswlP-35" value="" style="html=1;points=[];perimeter=orthogonalPerimeter;strokeWidth=2;fillColor=#FFB366;" vertex="1" parent="HLpBuHhDxQK3FDBGswlP-1">
          <mxGeometry x="720" y="530" width="10" height="40" as="geometry" />
        </mxCell>
        <mxCell id="zDslO5p10FdsWs767TEp-0" value="7: Modificar Datos()" style="html=1;verticalAlign=bottom;endArrow=block;entryX=0.9;entryY=1;entryDx=0;entryDy=0;entryPerimeter=0;" edge="1" parent="HLpBuHhDxQK3FDBGswlP-1">
          <mxGeometry x="0.1146" relative="1" as="geometry">
            <mxPoint x="724" y="569" as="sourcePoint" />
            <mxPoint x="340" y="569" as="targetPoint" />
            <mxPoint as="offset" />
          </mxGeometry>
        </mxCell>
      </root>
    </mxGraphModel>
  </diagram>
  <diagram id="DS4LCj0SgC_W9mc_Sctk" name="SECUENCIA-OPERACIÓN-ADMIN">
    <mxGraphModel dx="839" dy="477" grid="1" gridSize="10" guides="1" tooltips="1" connect="1" arrows="1" fold="1" page="1" pageScale="1" pageWidth="827" pageHeight="1169" math="0" shadow="0">
      <root>
        <mxCell id="II1lLRouwJY8IPcRjDC_-0" />
        <mxCell id="II1lLRouwJY8IPcRjDC_-1" parent="II1lLRouwJY8IPcRjDC_-0" />
        <mxCell id="svYq6QilU2QQWyMygImq-0" value="Administrador" style="shape=umlActor;verticalLabelPosition=bottom;verticalAlign=top;html=1;outlineConnect=0;strokeColor=#000000;strokeWidth=2;fillColor=#FFFFFF;" vertex="1" parent="II1lLRouwJY8IPcRjDC_-1">
          <mxGeometry x="140" y="250" width="30" height="60" as="geometry" />
        </mxCell>
        <mxCell id="svYq6QilU2QQWyMygImq-1" value="" style="endArrow=none;dashed=1;html=1;entryX=0.477;entryY=1;entryDx=0;entryDy=0;entryPerimeter=0;" edge="1" parent="II1lLRouwJY8IPcRjDC_-1">
          <mxGeometry width="50" height="50" relative="1" as="geometry">
            <mxPoint x="154" y="380" as="sourcePoint" />
            <mxPoint x="154.49749999999995" y="330" as="targetPoint" />
          </mxGeometry>
        </mxCell>
        <mxCell id="svYq6QilU2QQWyMygImq-2" value="" style="html=1;points=[];perimeter=orthogonalPerimeter;strokeWidth=2;" vertex="1" parent="II1lLRouwJY8IPcRjDC_-1">
          <mxGeometry x="150" y="380" width="10" height="60" as="geometry" />
        </mxCell>
        <mxCell id="svYq6QilU2QQWyMygImq-3" value="" style="html=1;points=[];perimeter=orthogonalPerimeter;strokeWidth=2;" vertex="1" parent="II1lLRouwJY8IPcRjDC_-1">
          <mxGeometry x="150" y="470" width="10" height="60" as="geometry" />
        </mxCell>
        <mxCell id="svYq6QilU2QQWyMygImq-4" value="" style="html=1;points=[];perimeter=orthogonalPerimeter;strokeWidth=2;fillColor=#FFB366;" vertex="1" parent="II1lLRouwJY8IPcRjDC_-1">
          <mxGeometry x="330" y="380" width="10" height="60" as="geometry" />
        </mxCell>
        <mxCell id="svYq6QilU2QQWyMygImq-6" value="" style="html=1;points=[];perimeter=orthogonalPerimeter;strokeWidth=2;fillColor=#FFB366;" vertex="1" parent="II1lLRouwJY8IPcRjDC_-1">
          <mxGeometry x="720" y="380" width="10" height="60" as="geometry" />
        </mxCell>
        <mxCell id="svYq6QilU2QQWyMygImq-7" value=":Login" style="rounded=0;whiteSpace=wrap;html=1;strokeColor=#000000;strokeWidth=2;fillColor=#FFB366;" vertex="1" parent="II1lLRouwJY8IPcRjDC_-1">
          <mxGeometry x="291.25" y="250" width="87.5" height="40" as="geometry" />
        </mxCell>
        <mxCell id="svYq6QilU2QQWyMygImq-10" value="" style="endArrow=none;dashed=1;html=1;entryX=0.477;entryY=1;entryDx=0;entryDy=0;entryPerimeter=0;exitX=0.5;exitY=0;exitDx=0;exitDy=0;exitPerimeter=0;" edge="1" parent="II1lLRouwJY8IPcRjDC_-1" source="svYq6QilU2QQWyMygImq-4">
          <mxGeometry width="50" height="50" relative="1" as="geometry">
            <mxPoint x="334.5" y="340" as="sourcePoint" />
            <mxPoint x="334.99749999999995" y="290" as="targetPoint" />
          </mxGeometry>
        </mxCell>
        <mxCell id="svYq6QilU2QQWyMygImq-11" value="" style="endArrow=none;dashed=1;html=1;entryX=0.477;entryY=1;entryDx=0;entryDy=0;entryPerimeter=0;" edge="1" parent="II1lLRouwJY8IPcRjDC_-1">
          <mxGeometry width="50" height="50" relative="1" as="geometry">
            <mxPoint x="335" y="700" as="sourcePoint" />
            <mxPoint x="334.99749999999995" y="440" as="targetPoint" />
          </mxGeometry>
        </mxCell>
        <mxCell id="svYq6QilU2QQWyMygImq-13" value="" style="endArrow=none;dashed=1;html=1;entryX=0.477;entryY=1;entryDx=0;entryDy=0;entryPerimeter=0;" edge="1" parent="II1lLRouwJY8IPcRjDC_-1">
          <mxGeometry width="50" height="50" relative="1" as="geometry">
            <mxPoint x="155" y="470" as="sourcePoint" />
            <mxPoint x="154.99749999999995" y="440" as="targetPoint" />
          </mxGeometry>
        </mxCell>
        <mxCell id="svYq6QilU2QQWyMygImq-14" value=":Hclinica_BD" style="rounded=0;whiteSpace=wrap;html=1;strokeColor=#000000;strokeWidth=2;fillColor=#FFB366;" vertex="1" parent="II1lLRouwJY8IPcRjDC_-1">
          <mxGeometry x="681.25" y="250" width="87.5" height="40" as="geometry" />
        </mxCell>
        <mxCell id="svYq6QilU2QQWyMygImq-15" value="" style="endArrow=none;dashed=1;html=1;entryX=0.477;entryY=1;entryDx=0;entryDy=0;entryPerimeter=0;" edge="1" parent="II1lLRouwJY8IPcRjDC_-1">
          <mxGeometry width="50" height="50" relative="1" as="geometry">
            <mxPoint x="725" y="457" as="sourcePoint" />
            <mxPoint x="724.9975" y="440" as="targetPoint" />
          </mxGeometry>
        </mxCell>
        <mxCell id="svYq6QilU2QQWyMygImq-16" value="" style="endArrow=none;dashed=1;html=1;exitX=0.5;exitY=0;exitDx=0;exitDy=0;exitPerimeter=0;" edge="1" parent="II1lLRouwJY8IPcRjDC_-1" source="svYq6QilU2QQWyMygImq-6">
          <mxGeometry width="50" height="50" relative="1" as="geometry">
            <mxPoint x="724.5" y="330" as="sourcePoint" />
            <mxPoint x="725" y="290" as="targetPoint" />
          </mxGeometry>
        </mxCell>
        <mxCell id="svYq6QilU2QQWyMygImq-17" value="1: Ingreso al Sistema()" style="html=1;verticalAlign=bottom;endArrow=block;" edge="1" parent="II1lLRouwJY8IPcRjDC_-1">
          <mxGeometry relative="1" as="geometry">
            <mxPoint x="160" y="379" as="sourcePoint" />
            <mxPoint x="330" y="379" as="targetPoint" />
          </mxGeometry>
        </mxCell>
        <mxCell id="svYq6QilU2QQWyMygImq-18" value="4: Ingreso()" style="html=1;verticalAlign=bottom;endArrow=block;entryX=0.9;entryY=0.983;entryDx=0;entryDy=0;entryPerimeter=0;" edge="1" parent="II1lLRouwJY8IPcRjDC_-1" target="svYq6QilU2QQWyMygImq-2">
          <mxGeometry x="-0.052" relative="1" as="geometry">
            <mxPoint x="332" y="439" as="sourcePoint" />
            <mxPoint x="340" y="389" as="targetPoint" />
            <mxPoint as="offset" />
          </mxGeometry>
        </mxCell>
        <mxCell id="svYq6QilU2QQWyMygImq-22" value="7: Salir()" style="html=1;verticalAlign=bottom;endArrow=block;entryX=1;entryY=0.95;entryDx=0;entryDy=0;entryPerimeter=0;exitX=-0.1;exitY=0.95;exitDx=0;exitDy=0;exitPerimeter=0;" edge="1" parent="II1lLRouwJY8IPcRjDC_-1" target="svYq6QilU2QQWyMygImq-23" source="svYq6QilU2QQWyMygImq-33">
          <mxGeometry x="-0.0651" relative="1" as="geometry">
            <mxPoint x="329" y="642" as="sourcePoint" />
            <mxPoint x="170" y="550" as="targetPoint" />
            <mxPoint as="offset" />
          </mxGeometry>
        </mxCell>
        <mxCell id="svYq6QilU2QQWyMygImq-23" value="" style="html=1;points=[];perimeter=orthogonalPerimeter;strokeWidth=2;" vertex="1" parent="II1lLRouwJY8IPcRjDC_-1">
          <mxGeometry x="150" y="640" width="10" height="40" as="geometry" />
        </mxCell>
        <mxCell id="svYq6QilU2QQWyMygImq-26" value="5: Registrar Operación()" style="html=1;verticalAlign=bottom;endArrow=block;entryX=-0.1;entryY=0.05;entryDx=0;entryDy=0;entryPerimeter=0;" edge="1" parent="II1lLRouwJY8IPcRjDC_-1" target="svYq6QilU2QQWyMygImq-30">
          <mxGeometry relative="1" as="geometry">
            <mxPoint x="160" y="470" as="sourcePoint" />
            <mxPoint x="330" y="470" as="targetPoint" />
          </mxGeometry>
        </mxCell>
        <mxCell id="svYq6QilU2QQWyMygImq-27" value="" style="html=1;points=[];perimeter=orthogonalPerimeter;strokeWidth=2;fillColor=#FFB366;" vertex="1" parent="II1lLRouwJY8IPcRjDC_-1">
          <mxGeometry x="720" y="640" width="10" height="50" as="geometry" />
        </mxCell>
        <mxCell id="svYq6QilU2QQWyMygImq-28" value="" style="html=1;points=[];perimeter=orthogonalPerimeter;strokeWidth=2;fillColor=#FFB366;" vertex="1" parent="II1lLRouwJY8IPcRjDC_-1">
          <mxGeometry x="720" y="530" width="10" height="40" as="geometry" />
        </mxCell>
        <mxCell id="svYq6QilU2QQWyMygImq-30" value="" style="html=1;points=[];perimeter=orthogonalPerimeter;strokeWidth=2;fillColor=#FFFFFF;" vertex="1" parent="II1lLRouwJY8IPcRjDC_-1">
          <mxGeometry x="440" y="470" width="10" height="40" as="geometry" />
        </mxCell>
        <mxCell id="svYq6QilU2QQWyMygImq-32" value="" style="html=1;points=[];perimeter=orthogonalPerimeter;strokeWidth=2;fillColor=#FFB366;" vertex="1" parent="II1lLRouwJY8IPcRjDC_-1">
          <mxGeometry x="440" y="530" width="10" height="40" as="geometry" />
        </mxCell>
        <mxCell id="svYq6QilU2QQWyMygImq-33" value="" style="html=1;points=[];perimeter=orthogonalPerimeter;strokeWidth=2;fillColor=#FFFFFF;" vertex="1" parent="II1lLRouwJY8IPcRjDC_-1">
          <mxGeometry x="440" y="640" width="10" height="40" as="geometry" />
        </mxCell>
        <mxCell id="svYq6QilU2QQWyMygImq-34" value="" style="endArrow=none;dashed=1;html=1;entryX=0.477;entryY=1;entryDx=0;entryDy=0;entryPerimeter=0;" edge="1" parent="II1lLRouwJY8IPcRjDC_-1">
          <mxGeometry width="50" height="50" relative="1" as="geometry">
            <mxPoint x="154.5" y="730" as="sourcePoint" />
            <mxPoint x="154.99749999999995" y="680" as="targetPoint" />
          </mxGeometry>
        </mxCell>
        <mxCell id="svYq6QilU2QQWyMygImq-35" value="" style="endArrow=none;html=1;entryX=0.4;entryY=1.033;entryDx=0;entryDy=0;entryPerimeter=0;" edge="1" parent="II1lLRouwJY8IPcRjDC_-1" target="svYq6QilU2QQWyMygImq-3">
          <mxGeometry width="50" height="50" relative="1" as="geometry">
            <mxPoint x="154" y="635" as="sourcePoint" />
            <mxPoint x="300" y="580" as="targetPoint" />
          </mxGeometry>
        </mxCell>
        <mxCell id="svYq6QilU2QQWyMygImq-36" value="form:admin" style="rounded=0;whiteSpace=wrap;html=1;strokeColor=#000000;strokeWidth=2;fillColor=#FFB366;" vertex="1" parent="II1lLRouwJY8IPcRjDC_-1">
          <mxGeometry x="401.25" y="250" width="87.5" height="40" as="geometry" />
        </mxCell>
        <mxCell id="svYq6QilU2QQWyMygImq-37" value="" style="endArrow=none;dashed=1;html=1;entryX=0.477;entryY=1;entryDx=0;entryDy=0;entryPerimeter=0;exitX=0.4;exitY=-0.075;exitDx=0;exitDy=0;exitPerimeter=0;" edge="1" parent="II1lLRouwJY8IPcRjDC_-1" source="svYq6QilU2QQWyMygImq-30">
          <mxGeometry width="50" height="50" relative="1" as="geometry">
            <mxPoint x="444.5" y="380" as="sourcePoint" />
            <mxPoint x="444.49749999999995" y="290" as="targetPoint" />
          </mxGeometry>
        </mxCell>
        <mxCell id="svYq6QilU2QQWyMygImq-38" value="" style="endArrow=none;dashed=1;html=1;entryX=0.477;entryY=1;entryDx=0;entryDy=0;entryPerimeter=0;" edge="1" parent="II1lLRouwJY8IPcRjDC_-1">
          <mxGeometry width="50" height="50" relative="1" as="geometry">
            <mxPoint x="444" y="640" as="sourcePoint" />
            <mxPoint x="444.49749999999995" y="625" as="targetPoint" />
          </mxGeometry>
        </mxCell>
        <mxCell id="svYq6QilU2QQWyMygImq-39" value="" style="endArrow=none;dashed=1;html=1;entryX=0.477;entryY=1;entryDx=0;entryDy=0;entryPerimeter=0;" edge="1" parent="II1lLRouwJY8IPcRjDC_-1">
          <mxGeometry width="50" height="50" relative="1" as="geometry">
            <mxPoint x="444" y="580" as="sourcePoint" />
            <mxPoint x="444.49749999999995" y="570" as="targetPoint" />
          </mxGeometry>
        </mxCell>
        <mxCell id="svYq6QilU2QQWyMygImq-40" value="" style="endArrow=none;dashed=1;html=1;entryX=0.477;entryY=1;entryDx=0;entryDy=0;entryPerimeter=0;" edge="1" parent="II1lLRouwJY8IPcRjDC_-1">
          <mxGeometry width="50" height="50" relative="1" as="geometry">
            <mxPoint x="444" y="530" as="sourcePoint" />
            <mxPoint x="444.49749999999995" y="510" as="targetPoint" />
          </mxGeometry>
        </mxCell>
        <mxCell id="svYq6QilU2QQWyMygImq-41" value="" style="endArrow=none;dashed=1;html=1;entryX=0.477;entryY=1;entryDx=0;entryDy=0;entryPerimeter=0;" edge="1" parent="II1lLRouwJY8IPcRjDC_-1">
          <mxGeometry width="50" height="50" relative="1" as="geometry">
            <mxPoint x="444" y="740" as="sourcePoint" />
            <mxPoint x="444.49749999999995" y="680" as="targetPoint" />
          </mxGeometry>
        </mxCell>
        <mxCell id="svYq6QilU2QQWyMygImq-45" value="" style="html=1;points=[];perimeter=orthogonalPerimeter;strokeColor=#000000;strokeWidth=2;fillColor=#FFFFFF;" vertex="1" parent="II1lLRouwJY8IPcRjDC_-1">
          <mxGeometry x="440" y="530" width="10" height="40" as="geometry" />
        </mxCell>
        <mxCell id="svYq6QilU2QQWyMygImq-46" value="5.1: Gestionar Paciente()" style="edgeStyle=orthogonalEdgeStyle;html=1;align=left;spacingLeft=2;endArrow=block;rounded=0;entryX=1;entryY=0;" edge="1" target="svYq6QilU2QQWyMygImq-45" parent="II1lLRouwJY8IPcRjDC_-1">
          <mxGeometry relative="1" as="geometry">
            <mxPoint x="450" y="490" as="sourcePoint" />
            <Array as="points">
              <mxPoint x="449" y="490" />
              <mxPoint x="490" y="490" />
              <mxPoint x="490" y="530" />
            </Array>
          </mxGeometry>
        </mxCell>
        <mxCell id="svYq6QilU2QQWyMygImq-47" value="" style="html=1;points=[];perimeter=orthogonalPerimeter;strokeColor=#000000;strokeWidth=2;fillColor=#FFFFFF;" vertex="1" parent="II1lLRouwJY8IPcRjDC_-1">
          <mxGeometry x="440" y="585" width="10" height="40" as="geometry" />
        </mxCell>
        <mxCell id="svYq6QilU2QQWyMygImq-48" value="5.2: Gestionar Medicos()" style="edgeStyle=orthogonalEdgeStyle;html=1;align=left;spacingLeft=2;endArrow=block;rounded=0;entryX=0.9;entryY=0.1;entryDx=0;entryDy=0;entryPerimeter=0;" edge="1" parent="II1lLRouwJY8IPcRjDC_-1" target="svYq6QilU2QQWyMygImq-47">
          <mxGeometry relative="1" as="geometry">
            <mxPoint x="451" y="555" as="sourcePoint" />
            <Array as="points">
              <mxPoint x="491" y="555" />
              <mxPoint x="491" y="589" />
            </Array>
            <mxPoint x="448" y="580" as="targetPoint" />
          </mxGeometry>
        </mxCell>
        <mxCell id="svYq6QilU2QQWyMygImq-49" value="5.3: Gestionar EPS()" style="edgeStyle=orthogonalEdgeStyle;html=1;align=left;spacingLeft=2;endArrow=block;rounded=0;entryX=0.9;entryY=0.1;entryDx=0;entryDy=0;entryPerimeter=0;" edge="1" parent="II1lLRouwJY8IPcRjDC_-1">
          <mxGeometry x="0.1034" relative="1" as="geometry">
            <mxPoint x="452" y="606" as="sourcePoint" />
            <Array as="points">
              <mxPoint x="492" y="606" />
              <mxPoint x="492" y="640" />
            </Array>
            <mxPoint x="450" y="640" as="targetPoint" />
            <mxPoint as="offset" />
          </mxGeometry>
        </mxCell>
        <mxCell id="svYq6QilU2QQWyMygImq-51" value="2: Verificar Acceso()" style="html=1;verticalAlign=bottom;endArrow=block;entryX=0;entryY=0;entryDx=0;entryDy=0;entryPerimeter=0;" edge="1" parent="II1lLRouwJY8IPcRjDC_-1" target="svYq6QilU2QQWyMygImq-6">
          <mxGeometry relative="1" as="geometry">
            <mxPoint x="340" y="380" as="sourcePoint" />
            <mxPoint x="640" y="380" as="targetPoint" />
          </mxGeometry>
        </mxCell>
        <mxCell id="svYq6QilU2QQWyMygImq-52" value="3: Acceso()" style="html=1;verticalAlign=bottom;endArrow=block;entryX=0.9;entryY=0.983;entryDx=0;entryDy=0;entryPerimeter=0;" edge="1" parent="II1lLRouwJY8IPcRjDC_-1">
          <mxGeometry x="-0.052" relative="1" as="geometry">
            <mxPoint x="720" y="439" as="sourcePoint" />
            <mxPoint x="340" y="439" as="targetPoint" />
            <mxPoint as="offset" />
          </mxGeometry>
        </mxCell>
        <mxCell id="svYq6QilU2QQWyMygImq-53" value="" style="html=1;points=[];perimeter=orthogonalPerimeter;strokeWidth=2;fillColor=#FFB366;" vertex="1" parent="II1lLRouwJY8IPcRjDC_-1">
          <mxGeometry x="720" y="460" width="10" height="40" as="geometry" />
        </mxCell>
        <mxCell id="svYq6QilU2QQWyMygImq-54" value="" style="html=1;verticalAlign=bottom;endArrow=block;entryX=-0.1;entryY=-0.05;entryDx=0;entryDy=0;entryPerimeter=0;exitX=1.1;exitY=-0.025;exitDx=0;exitDy=0;exitPerimeter=0;" edge="1" parent="II1lLRouwJY8IPcRjDC_-1" source="svYq6QilU2QQWyMygImq-30" target="svYq6QilU2QQWyMygImq-53">
          <mxGeometry x="-0.4337" y="11" relative="1" as="geometry">
            <mxPoint x="350" y="390" as="sourcePoint" />
            <mxPoint x="730" y="390" as="targetPoint" />
            <Array as="points">
              <mxPoint x="590" y="469" />
              <mxPoint x="590" y="458" />
            </Array>
            <mxPoint as="offset" />
          </mxGeometry>
        </mxCell>
        <mxCell id="svYq6QilU2QQWyMygImq-55" value="" style="html=1;verticalAlign=bottom;endArrow=block;exitX=1.1;exitY=-0.025;exitDx=0;exitDy=0;exitPerimeter=0;entryX=0.1;entryY=0.975;entryDx=0;entryDy=0;entryPerimeter=0;" edge="1" parent="II1lLRouwJY8IPcRjDC_-1" target="svYq6QilU2QQWyMygImq-53">
          <mxGeometry x="-0.4337" y="11" relative="1" as="geometry">
            <mxPoint x="452" y="541" as="sourcePoint" />
            <mxPoint x="718" y="520" as="targetPoint" />
            <Array as="points">
              <mxPoint x="620" y="541" />
              <mxPoint x="620" y="499" />
            </Array>
            <mxPoint as="offset" />
          </mxGeometry>
        </mxCell>
        <mxCell id="svYq6QilU2QQWyMygImq-56" value="" style="html=1;verticalAlign=bottom;endArrow=block;exitX=1.1;exitY=-0.025;exitDx=0;exitDy=0;exitPerimeter=0;" edge="1" parent="II1lLRouwJY8IPcRjDC_-1">
          <mxGeometry x="-0.4337" y="11" relative="1" as="geometry">
            <mxPoint x="450" y="595" as="sourcePoint" />
            <mxPoint x="719" y="530" as="targetPoint" />
            <Array as="points">
              <mxPoint x="680" y="595" />
              <mxPoint x="680" y="530" />
            </Array>
            <mxPoint as="offset" />
          </mxGeometry>
        </mxCell>
        <mxCell id="svYq6QilU2QQWyMygImq-57" value="" style="html=1;verticalAlign=bottom;endArrow=block;exitX=1.1;exitY=-0.025;exitDx=0;exitDy=0;exitPerimeter=0;" edge="1" parent="II1lLRouwJY8IPcRjDC_-1">
          <mxGeometry x="-0.4337" y="11" relative="1" as="geometry">
            <mxPoint x="450" y="595" as="sourcePoint" />
            <mxPoint x="719" y="530" as="targetPoint" />
            <Array as="points">
              <mxPoint x="680" y="595" />
              <mxPoint x="680" y="530" />
            </Array>
            <mxPoint as="offset" />
          </mxGeometry>
        </mxCell>
        <mxCell id="svYq6QilU2QQWyMygImq-58" value="" style="html=1;verticalAlign=bottom;endArrow=block;entryX=-0.2;entryY=0.95;entryDx=0;entryDy=0;entryPerimeter=0;" edge="1" parent="II1lLRouwJY8IPcRjDC_-1" target="svYq6QilU2QQWyMygImq-28">
          <mxGeometry x="-0.4337" y="11" relative="1" as="geometry">
            <mxPoint x="451" y="650" as="sourcePoint" />
            <mxPoint x="700" y="560" as="targetPoint" />
            <Array as="points">
              <mxPoint x="570" y="650" />
              <mxPoint x="700" y="650" />
              <mxPoint x="700" y="570" />
            </Array>
            <mxPoint as="offset" />
          </mxGeometry>
        </mxCell>
        <mxCell id="svYq6QilU2QQWyMygImq-59" value="" style="endArrow=none;dashed=1;html=1;" edge="1" parent="II1lLRouwJY8IPcRjDC_-1">
          <mxGeometry width="50" height="50" relative="1" as="geometry">
            <mxPoint x="724.5" y="500" as="sourcePoint" />
            <mxPoint x="724.5" y="520" as="targetPoint" />
            <Array as="points">
              <mxPoint x="725" y="530" />
            </Array>
          </mxGeometry>
        </mxCell>
        <mxCell id="svYq6QilU2QQWyMygImq-60" value="" style="endArrow=none;dashed=1;html=1;entryX=0.477;entryY=1;entryDx=0;entryDy=0;entryPerimeter=0;exitX=0.45;exitY=0;exitDx=0;exitDy=0;exitPerimeter=0;" edge="1" parent="II1lLRouwJY8IPcRjDC_-1" source="svYq6QilU2QQWyMygImq-27">
          <mxGeometry width="50" height="50" relative="1" as="geometry">
            <mxPoint x="724.5" y="587" as="sourcePoint" />
            <mxPoint x="724.4975" y="570" as="targetPoint" />
          </mxGeometry>
        </mxCell>
        <mxCell id="svYq6QilU2QQWyMygImq-61" value="6: Verificación Exito()" style="html=1;verticalAlign=bottom;endArrow=block;entryX=0.9;entryY=0.983;entryDx=0;entryDy=0;entryPerimeter=0;" edge="1" parent="II1lLRouwJY8IPcRjDC_-1">
          <mxGeometry x="-0.052" relative="1" as="geometry">
            <mxPoint x="720" y="679" as="sourcePoint" />
            <mxPoint x="450" y="679" as="targetPoint" />
            <mxPoint as="offset" />
          </mxGeometry>
        </mxCell>
        <mxCell id="svYq6QilU2QQWyMygImq-62" value="" style="endArrow=none;dashed=1;html=1;" edge="1" parent="II1lLRouwJY8IPcRjDC_-1">
          <mxGeometry width="50" height="50" relative="1" as="geometry">
            <mxPoint x="724.5" y="690" as="sourcePoint" />
            <mxPoint x="724.5" y="710" as="targetPoint" />
            <Array as="points">
              <mxPoint x="725" y="720" />
            </Array>
          </mxGeometry>
        </mxCell>
      </root>
    </mxGraphModel>
  </diagram>
  <diagram id="oUiZKXYP4JuJXlgcAAi-" name="DIAGRAMA-COMPONENTES">
    <mxGraphModel dx="1666" dy="477" grid="1" gridSize="10" guides="1" tooltips="1" connect="1" arrows="1" fold="1" page="1" pageScale="1" pageWidth="827" pageHeight="1169" math="0" shadow="0">
      <root>
        <mxCell id="4gMS6CygKFX85fMZ5duP-0" />
        <mxCell id="4gMS6CygKFX85fMZ5duP-1" parent="4gMS6CygKFX85fMZ5duP-0" />
        <mxCell id="4gMS6CygKFX85fMZ5duP-53" value="" style="whiteSpace=wrap;html=1;aspect=fixed;strokeColor=#000000;strokeWidth=2;" vertex="1" parent="4gMS6CygKFX85fMZ5duP-1">
          <mxGeometry x="-10" y="110" width="670" height="670" as="geometry" />
        </mxCell>
        <mxCell id="4gMS6CygKFX85fMZ5duP-2" value="&lt;b&gt;Cliente / Usuario&lt;/b&gt;" style="verticalAlign=top;align=left;spacingTop=8;spacingLeft=2;spacingRight=12;shape=cube;size=10;direction=south;fontStyle=4;html=1;strokeColor=#000000;strokeWidth=2;fillColor=#97D077;" vertex="1" parent="4gMS6CygKFX85fMZ5duP-1">
          <mxGeometry x="60" y="220" width="180" height="120" as="geometry" />
        </mxCell>
        <mxCell id="4gMS6CygKFX85fMZ5duP-3" value="&#xa;Navegador WEB" style="shape=module;align=left;spacingLeft=20;align=center;verticalAlign=top;strokeColor=#000000;strokeWidth=2;fillColor=#FFB366;fontStyle=1" vertex="1" parent="4gMS6CygKFX85fMZ5duP-1">
          <mxGeometry x="90" y="255" width="120" height="50" as="geometry" />
        </mxCell>
        <mxCell id="4gMS6CygKFX85fMZ5duP-4" value="&lt;b&gt;Servidor de Aplicaciones&lt;/b&gt;" style="verticalAlign=top;align=left;spacingTop=8;spacingLeft=2;spacingRight=12;shape=cube;size=10;direction=south;fontStyle=4;html=1;strokeColor=#000000;strokeWidth=2;fillColor=#97D077;" vertex="1" parent="4gMS6CygKFX85fMZ5duP-1">
          <mxGeometry x="50" y="440" width="240" height="200" as="geometry" />
        </mxCell>
        <mxCell id="4gMS6CygKFX85fMZ5duP-39" style="edgeStyle=orthogonalEdgeStyle;rounded=0;orthogonalLoop=1;jettySize=auto;html=1;exitX=0;exitY=0;exitDx=0;exitDy=35;exitPerimeter=0;entryX=0;entryY=0;entryDx=0;entryDy=15;entryPerimeter=0;dashed=1;" edge="1" parent="4gMS6CygKFX85fMZ5duP-1" source="4gMS6CygKFX85fMZ5duP-5" target="4gMS6CygKFX85fMZ5duP-3">
          <mxGeometry relative="1" as="geometry">
            <Array as="points">
              <mxPoint y="515" />
              <mxPoint y="270" />
            </Array>
          </mxGeometry>
        </mxCell>
        <mxCell id="4gMS6CygKFX85fMZ5duP-42" style="edgeStyle=orthogonalEdgeStyle;rounded=0;orthogonalLoop=1;jettySize=auto;html=1;exitX=0;exitY=0;exitDx=0;exitDy=35;exitPerimeter=0;entryX=0;entryY=0;entryDx=0;entryDy=15;entryPerimeter=0;dashed=1;endArrow=classic;endFill=1;" edge="1" parent="4gMS6CygKFX85fMZ5duP-1" source="4gMS6CygKFX85fMZ5duP-5" target="4gMS6CygKFX85fMZ5duP-7">
          <mxGeometry relative="1" as="geometry" />
        </mxCell>
        <mxCell id="4gMS6CygKFX85fMZ5duP-5" value="&#xa;Servidor HTTP" style="shape=module;align=left;spacingLeft=20;align=center;verticalAlign=top;strokeColor=#000000;strokeWidth=2;fillColor=#FFB366;fontStyle=1" vertex="1" parent="4gMS6CygKFX85fMZ5duP-1">
          <mxGeometry x="100" y="480" width="120" height="50" as="geometry" />
        </mxCell>
        <mxCell id="4gMS6CygKFX85fMZ5duP-43" style="edgeStyle=orthogonalEdgeStyle;rounded=0;orthogonalLoop=1;jettySize=auto;html=1;exitX=0;exitY=0;exitDx=0;exitDy=35;exitPerimeter=0;entryX=0;entryY=0;entryDx=0;entryDy=15;entryPerimeter=0;dashed=1;endArrow=classic;endFill=1;" edge="1" parent="4gMS6CygKFX85fMZ5duP-1" source="4gMS6CygKFX85fMZ5duP-7" target="4gMS6CygKFX85fMZ5duP-5">
          <mxGeometry relative="1" as="geometry" />
        </mxCell>
        <mxCell id="4gMS6CygKFX85fMZ5duP-7" value="&#xa;Conexión BD" style="shape=module;align=left;spacingLeft=20;align=center;verticalAlign=top;strokeColor=#000000;strokeWidth=2;fillColor=#FFB366;fontStyle=1" vertex="1" parent="4gMS6CygKFX85fMZ5duP-1">
          <mxGeometry x="100" y="570" width="120" height="50" as="geometry" />
        </mxCell>
        <mxCell id="4gMS6CygKFX85fMZ5duP-8" value="&lt;b&gt;Modulo del aplicativo&lt;/b&gt;" style="verticalAlign=top;align=left;spacingTop=8;spacingLeft=2;spacingRight=12;shape=cube;size=10;direction=south;fontStyle=4;html=1;strokeColor=#000000;strokeWidth=2;fillColor=#97D077;" vertex="1" parent="4gMS6CygKFX85fMZ5duP-1">
          <mxGeometry x="370" y="110" width="290" height="200" as="geometry" />
        </mxCell>
        <mxCell id="4gMS6CygKFX85fMZ5duP-9" value="&#xa;Modulo Citas" style="shape=module;align=left;spacingLeft=20;align=center;verticalAlign=top;strokeColor=#000000;strokeWidth=2;fillColor=#FFB366;fontStyle=1" vertex="1" parent="4gMS6CygKFX85fMZ5duP-1">
          <mxGeometry x="390" y="180" width="100" height="50" as="geometry" />
        </mxCell>
        <mxCell id="4gMS6CygKFX85fMZ5duP-11" value="&#xa;Modulo Pacientes" style="shape=module;align=left;spacingLeft=20;align=center;verticalAlign=top;strokeColor=#000000;strokeWidth=2;fillColor=#FFB366;fontStyle=1" vertex="1" parent="4gMS6CygKFX85fMZ5duP-1">
          <mxGeometry x="390" y="245" width="120" height="50" as="geometry" />
        </mxCell>
        <mxCell id="4gMS6CygKFX85fMZ5duP-12" value="&#xa;Modulo Médicos" style="shape=module;align=left;spacingLeft=20;align=center;verticalAlign=top;strokeColor=#000000;strokeWidth=2;fillColor=#FFB366;fontStyle=1" vertex="1" parent="4gMS6CygKFX85fMZ5duP-1">
          <mxGeometry x="520" y="180" width="120" height="50" as="geometry" />
        </mxCell>
        <mxCell id="4gMS6CygKFX85fMZ5duP-13" value="&#xa;Modulo Turnos" style="shape=module;align=left;spacingLeft=20;align=center;verticalAlign=top;strokeColor=#000000;strokeWidth=2;fillColor=#FFB366;fontStyle=1" vertex="1" parent="4gMS6CygKFX85fMZ5duP-1">
          <mxGeometry x="520" y="245" width="120" height="50" as="geometry" />
        </mxCell>
        <mxCell id="4gMS6CygKFX85fMZ5duP-14" value="&lt;b&gt;Servidor de Bases de datos&lt;/b&gt;" style="verticalAlign=top;align=left;spacingTop=8;spacingLeft=2;spacingRight=12;shape=cube;size=10;direction=south;fontStyle=4;html=1;strokeColor=#000000;strokeWidth=2;fillColor=#99CCFF;" vertex="1" parent="4gMS6CygKFX85fMZ5duP-1">
          <mxGeometry x="380" y="480" width="280" height="220" as="geometry" />
        </mxCell>
        <mxCell id="4gMS6CygKFX85fMZ5duP-16" value="&lt;br&gt;&lt;b&gt;Bases de Datos&lt;/b&gt;" style="strokeWidth=2;html=1;shape=mxgraph.flowchart.database;whiteSpace=wrap;fillColor=#999999;" vertex="1" parent="4gMS6CygKFX85fMZ5duP-1">
          <mxGeometry x="410" y="565" width="70" height="80" as="geometry" />
        </mxCell>
        <mxCell id="4gMS6CygKFX85fMZ5duP-46" style="edgeStyle=orthogonalEdgeStyle;rounded=0;orthogonalLoop=1;jettySize=auto;html=1;exitX=0;exitY=1;exitDx=10;exitDy=0;exitPerimeter=0;entryX=0.5;entryY=1;entryDx=0;entryDy=0;entryPerimeter=0;endArrow=classic;endFill=1;dashed=1;" edge="1" parent="4gMS6CygKFX85fMZ5duP-1" source="4gMS6CygKFX85fMZ5duP-17" target="4gMS6CygKFX85fMZ5duP-16">
          <mxGeometry relative="1" as="geometry">
            <Array as="points">
              <mxPoint x="445" y="690" />
            </Array>
          </mxGeometry>
        </mxCell>
        <mxCell id="4gMS6CygKFX85fMZ5duP-17" value="&#xa;MySQL" style="shape=module;align=left;spacingLeft=20;align=center;verticalAlign=top;strokeColor=#000000;strokeWidth=2;fillColor=#FFB366;fontStyle=1" vertex="1" parent="4gMS6CygKFX85fMZ5duP-1">
          <mxGeometry x="530" y="640" width="100" height="50" as="geometry" />
        </mxCell>
        <mxCell id="4gMS6CygKFX85fMZ5duP-48" style="edgeStyle=orthogonalEdgeStyle;rounded=0;orthogonalLoop=1;jettySize=auto;html=1;exitX=0;exitY=0;exitDx=10;exitDy=0;exitPerimeter=0;entryX=1;entryY=0.5;entryDx=0;entryDy=0;entryPerimeter=0;dashed=1;endArrow=classic;endFill=1;" edge="1" parent="4gMS6CygKFX85fMZ5duP-1" source="4gMS6CygKFX85fMZ5duP-18" target="4gMS6CygKFX85fMZ5duP-16">
          <mxGeometry relative="1" as="geometry">
            <Array as="points">
              <mxPoint x="505" y="580" />
              <mxPoint x="505" y="605" />
            </Array>
          </mxGeometry>
        </mxCell>
        <mxCell id="4gMS6CygKFX85fMZ5duP-18" value="&#xa;MongoDB" style="shape=module;align=left;spacingLeft=20;align=center;verticalAlign=top;strokeColor=#000000;strokeWidth=2;fillColor=#FFB366;fontStyle=1" vertex="1" parent="4gMS6CygKFX85fMZ5duP-1">
          <mxGeometry x="530" y="580" width="100" height="50" as="geometry" />
        </mxCell>
        <mxCell id="4gMS6CygKFX85fMZ5duP-33" value="" style="rounded=0;orthogonalLoop=1;jettySize=auto;html=1;endArrow=none;endFill=0;exitX=1;exitY=0.5;exitDx=0;exitDy=0;" edge="1" target="4gMS6CygKFX85fMZ5duP-35" parent="4gMS6CygKFX85fMZ5duP-1" source="4gMS6CygKFX85fMZ5duP-7">
          <mxGeometry relative="1" as="geometry">
            <mxPoint x="160" y="725" as="sourcePoint" />
            <Array as="points">
              <mxPoint x="305" y="595" />
            </Array>
          </mxGeometry>
        </mxCell>
        <mxCell id="4gMS6CygKFX85fMZ5duP-34" value="" style="rounded=0;orthogonalLoop=1;jettySize=auto;html=1;endArrow=halfCircle;endFill=0;entryX=0.5;entryY=0.5;entryDx=0;entryDy=0;endSize=6;strokeWidth=1;" edge="1" target="4gMS6CygKFX85fMZ5duP-35" parent="4gMS6CygKFX85fMZ5duP-1">
          <mxGeometry relative="1" as="geometry">
            <mxPoint x="462" y="700" as="sourcePoint" />
            <Array as="points">
              <mxPoint x="462" y="725" />
              <mxPoint x="305" y="725" />
            </Array>
          </mxGeometry>
        </mxCell>
        <mxCell id="4gMS6CygKFX85fMZ5duP-35" value="" style="ellipse;whiteSpace=wrap;html=1;fontFamily=Helvetica;fontSize=12;fontColor=#000000;align=center;strokeColor=#000000;points=[];aspect=fixed;resizable=0;fillColor=#FF3333;" vertex="1" parent="4gMS6CygKFX85fMZ5duP-1">
          <mxGeometry x="300" y="690" width="10" height="10" as="geometry" />
        </mxCell>
        <mxCell id="4gMS6CygKFX85fMZ5duP-36" value="Conexión BD" style="text;align=center;fontStyle=1;verticalAlign=middle;spacingLeft=3;spacingRight=3;strokeColor=none;rotatable=0;points=[[0,0.5],[1,0.5]];portConstraint=eastwest;fillColor=#FFFFFF;" vertex="1" parent="4gMS6CygKFX85fMZ5duP-1">
          <mxGeometry x="310" y="710" width="80" height="10" as="geometry" />
        </mxCell>
        <mxCell id="4gMS6CygKFX85fMZ5duP-41" style="edgeStyle=orthogonalEdgeStyle;rounded=0;orthogonalLoop=1;jettySize=auto;html=1;exitX=0;exitY=0;exitDx=0;exitDy=35;exitPerimeter=0;entryX=0;entryY=0;entryDx=0;entryDy=15;entryPerimeter=0;dashed=1;endArrow=classic;endFill=1;" edge="1" parent="4gMS6CygKFX85fMZ5duP-1" source="4gMS6CygKFX85fMZ5duP-3" target="4gMS6CygKFX85fMZ5duP-5">
          <mxGeometry relative="1" as="geometry">
            <Array as="points">
              <mxPoint x="30" y="290" />
              <mxPoint x="30" y="495" />
            </Array>
          </mxGeometry>
        </mxCell>
        <mxCell id="4gMS6CygKFX85fMZ5duP-45" value="" style="endArrow=classic;html=1;entryX=1;entryY=1;entryDx=0;entryDy=0;entryPerimeter=0;exitX=0;exitY=0;exitDx=0;exitDy=0;exitPerimeter=0;" edge="1" parent="4gMS6CygKFX85fMZ5duP-1" source="4gMS6CygKFX85fMZ5duP-4" target="4gMS6CygKFX85fMZ5duP-8">
          <mxGeometry width="50" height="50" relative="1" as="geometry">
            <mxPoint x="550" y="400" as="sourcePoint" />
            <mxPoint x="600" y="350" as="targetPoint" />
          </mxGeometry>
        </mxCell>
        <mxCell id="4gMS6CygKFX85fMZ5duP-49" value="Conexión HTTP" style="text;html=1;strokeColor=none;fillColor=none;align=center;verticalAlign=middle;whiteSpace=wrap;rounded=0;" vertex="1" parent="4gMS6CygKFX85fMZ5duP-1">
          <mxGeometry y="350" width="90" height="20" as="geometry" />
        </mxCell>
        <mxCell id="4gMS6CygKFX85fMZ5duP-54" value="Los clientes inician en el navegador, ingresan la URL de la pagina inicial para autenticación y uso del sistema." style="shape=note2;boundedLbl=1;whiteSpace=wrap;html=1;size=25;verticalAlign=top;align=left;strokeColor=#000000;strokeWidth=2;fillColor=#FFFF99;" vertex="1" parent="4gMS6CygKFX85fMZ5duP-1">
          <mxGeometry x="60" y="130" width="220" height="80" as="geometry" />
        </mxCell>
        <mxCell id="4gMS6CygKFX85fMZ5duP-55" value="Servidor de las bases de datos de la aplicación donde estan almacenados los datos de Médicos, Usuarios etc." style="shape=note2;boundedLbl=1;whiteSpace=wrap;html=1;size=25;verticalAlign=top;align=left;strokeColor=#000000;strokeWidth=2;fillColor=#FFFF99;" vertex="1" parent="4gMS6CygKFX85fMZ5duP-1">
          <mxGeometry x="360" y="415" width="300" height="60" as="geometry" />
        </mxCell>
        <mxCell id="4gMS6CygKFX85fMZ5duP-56" value="Servidor donde se encuentra alojada la aplicación web, la lógica de negocio y las diferentes clases, en esta parte es donde tambien se maneja la sesión de los usuarios." style="shape=note2;boundedLbl=1;whiteSpace=wrap;html=1;size=25;verticalAlign=top;align=left;strokeColor=#000000;strokeWidth=2;fillColor=#FFFF99;" vertex="1" parent="4gMS6CygKFX85fMZ5duP-1">
          <mxGeometry y="650" width="290" height="90" as="geometry" />
        </mxCell>
        <mxCell id="4gMS6CygKFX85fMZ5duP-57" value="Inicia proceso de autenticación, se retorna respuesta al cliente de éxito o fracaso.&amp;nbsp;" style="shape=note2;boundedLbl=1;whiteSpace=wrap;html=1;size=25;verticalAlign=top;align=left;strokeColor=#000000;strokeWidth=2;fillColor=#FFFF99;" vertex="1" parent="4gMS6CygKFX85fMZ5duP-1">
          <mxGeometry x="50" y="370" width="240" height="60" as="geometry" />
        </mxCell>
      </root>
    </mxGraphModel>
  </diagram>
</mxfile>
